<svg xmlns="http://www.w3.org/2000/svg" viewBox="0 0 278.26 70.76"><defs><style>.cls-1{fill:#17243e;}.cls-2{fill:#2a6db5;}.cls-3{fill:#dc6954;}.cls-4{fill:#c6c6c6;}</style></defs><g id="Layer_2"><g id="Layer_1-2"><path class="cls-1" d="M15.84,39.06h7.75v9.09a10,10,0,0,1-6.32,2c-7.41,0-11.84-5.49-11.84-14.69C5.43,26.54,10,21,17.27,21A9.65,9.65,0,0,1,24.8,24.3l.23.25,3.11-3.44-.21-.21a14.52,14.52,0,0,0-10.71-4.61C6.92,16.29,0,24,0,35.57,0,47.28,6.58,54.85,16.77,54.85a16.84,16.84,0,0,0,11.6-4.33l.1-.09V34.58H15.84Z"/><path class="cls-1" d="M40.72,50.36a3.58,3.58,0,0,1-.92.1c-.61,0-1-.61-1-1.67V14.29H33.69V48.46c0,4.3,1.67,6.38,5.11,6.38a6.3,6.3,0,0,0,2.72-.47l.23-.1-.71-4Z"/><path class="cls-1" d="M60.71,40.22v6.94c-2.77,2.46-4.75,3.41-7,3.41-1.63,0-4.37-.52-4.37-4s3.41-5.35,11.39-6.37M56.22,26.09a19.89,19.89,0,0,0-10.7,3.52l-.25.17,2.14,3.7.28-.2a13.87,13.87,0,0,1,7.82-2.81c3.37,0,5.11,2.06,5.19,6.13C49.15,37.93,44.22,41,44.22,46.92c0,4.74,3.29,7.92,8.2,7.92,2.77,0,5.56-1.16,8.73-3.65l.36,3h4.35V37.43c0-7.42-3.33-11.34-9.64-11.34"/><path class="cls-1" d="M79.59,38.13,79.18,38c-2.86-1.09-5.34-2-5.34-4.18,0-1.71,1.21-3.54,4.59-3.54a9.5,9.5,0,0,1,5.93,2.31l.26.19,2.52-3.36-.24-.2a13.72,13.72,0,0,0-8.52-3.1c-5.7,0-9.52,3.19-9.52,7.93s4.23,6.57,8.2,8c2.77,1,5.91,2.23,5.91,4.78,0,2.39-1.91,3.87-5,3.87a11.91,11.91,0,0,1-7.68-3.12l-.26-.21-2.63,3.54.23.19a16.57,16.57,0,0,0,10.18,3.76c7,0,10.13-4.17,10.13-8.31,0-5.29-4.45-6.94-8.37-8.4"/><path class="cls-1" d="M100.49,38.13l-.42-.16c-2.86-1.09-5.33-2-5.33-4.18,0-1.71,1.2-3.54,4.59-3.54a9.5,9.5,0,0,1,5.93,2.31l.25.19L108,29.39l-.24-.2a13.78,13.78,0,0,0-8.53-3.1c-5.69,0-9.52,3.19-9.52,7.93S94,40.59,98,42c2.77,1,5.92,2.23,5.92,4.78,0,2.39-1.91,3.87-5,3.87a11.94,11.94,0,0,1-7.69-3.12L91,47.35l-2.64,3.54.23.19a16.59,16.59,0,0,0,10.18,3.76c7,0,10.13-4.17,10.13-8.31,0-5.29-4.44-6.94-8.36-8.4"/><path class="cls-1" d="M129.06,38.17H115.39c.61-4.65,3.6-7.86,7.37-7.86,4,0,6.21,2.78,6.3,7.86m-6.41-12.08c-6,0-12.34,5.06-12.34,14.43,0,8.43,5.42,14.32,13.17,14.32a16.26,16.26,0,0,0,9-2.8l.24-.16-1.89-3.54-.29.19a11.72,11.72,0,0,1-6.5,2c-4.9,0-8.16-3.36-8.6-8.8h18l0-.26a16.13,16.13,0,0,0,.17-2.53c0-8.07-4.11-12.89-11-12.89"/><path class="cls-1" d="M146.52,38.13l-.41-.16c-2.86-1.09-5.34-2-5.34-4.18,0-1.71,1.21-3.54,4.59-3.54a9.5,9.5,0,0,1,5.93,2.31l.25.19,2.53-3.36-.24-.2a13.77,13.77,0,0,0-8.52-3.1c-5.7,0-9.53,3.19-9.53,7.93s4.24,6.57,8.2,8c2.78,1,5.92,2.23,5.92,4.78,0,2.39-1.91,3.87-5,3.87a11.91,11.91,0,0,1-7.68-3.12l-.26-.21-2.64,3.54.23.19a16.62,16.62,0,0,0,10.19,3.76c7,0,10.13-4.17,10.13-8.31,0-5.29-4.45-6.94-8.37-8.4"/><path class="cls-2" d="M180.06,39c0,7.4-2.79,11.16-8.29,11.16s-8.06-3.76-8.06-11.16V17.38h-5.27V38.92c0,7.27,2.32,15.92,13.33,15.92s13.33-8.65,13.33-15.92V17.38h-5Z"/><path class="cls-2" d="M204.87,34.28l-5.19-2.21-.12,0c-2.8-1.21-5.7-2.45-5.7-5.67,0-3,2.54-5,6.47-5a11.37,11.37,0,0,1,8,3.34l.25.23,2.81-3.46-.19-.2a15.09,15.09,0,0,0-10.87-4.56c-6.69,0-11.73,4.26-11.73,9.91,0,4.31,2.46,7.45,7.52,9.61l5.18,2.26.1,0c3.36,1.51,5.78,2.61,5.78,6.06s-2.77,5.59-7.24,5.59a13.76,13.76,0,0,1-9.75-4.43l-.24-.25-3.17,3.68.2.21a17.72,17.72,0,0,0,12.85,5.44c7.46,0,12.67-4.37,12.67-10.62,0-5.84-3.86-8.3-7.63-9.94"/><path class="cls-2" d="M232.87,38.83h-10l1.63-5.11c1.14-3.62,2.23-7.29,3.39-11.49,1.17,4.21,2.25,7.88,3.39,11.49Zm-2.1-21.45h-5.64l-12.46,36.8H218l3.48-11h12.71l3.47,11h5.53Z"/><path class="cls-1" d="M154.88,68a1.4,1.4,0,1,1-1.34,1.39A1.33,1.33,0,0,1,154.88,68"/><path class="cls-1" d="M162,61.54a3.63,3.63,0,0,1,2.57,1l-1,1.31a2.17,2.17,0,0,0-1.49-.65c-1.41,0-2.4,1.17-2.4,2.94s1,2.92,2.35,2.92a2.94,2.94,0,0,0,1.81-.75l.86,1.3a4.39,4.39,0,0,1-2.88,1.13c-2.4,0-4.25-1.68-4.25-4.6A4.34,4.34,0,0,1,162,61.54"/><path class="cls-1" d="M169.28,69.08c1.29,0,2.07-1.17,2.07-2.92s-.78-2.94-2.07-2.94-2.06,1.17-2.06,2.94.77,2.92,2.06,2.92m0-7.54c2.2,0,4.19,1.68,4.19,4.62a4.25,4.25,0,0,1-4.19,4.6c-2.19,0-4.17-1.68-4.17-4.6s2-4.62,4.17-4.62"/><path class="cls-1" d="M175.15,61.76h1.7L177,63h.08a3.7,3.7,0,0,1,2.68-1.42,2.4,2.4,0,0,1,2.44,1.58A4,4,0,0,1,185,61.54c1.87,0,2.73,1.27,2.73,3.49v5.52h-2.08V65.3c0-1.45-.43-2-1.34-2a2.72,2.72,0,0,0-1.85,1.1v6.14h-2.06V65.3c0-1.45-.43-2-1.36-2a2.77,2.77,0,0,0-1.84,1.1v6.14h-2.06Z"/><path class="cls-3" d="M193.61,70.55h40.91a1.91,1.91,0,0,0,.54-.09,22.25,22.25,0,0,0,8.43-2.07,18.72,18.72,0,0,0,9.24-10.76c1-2.76,2.31-7.27,3.42-11.29h0s0-.07,0-.18c1.12-4.07,2.21-8.41,3.15-12.28,1.16-4.48,2.38-9.09,3.15-11.78,2.37-8.19-1.49-9.83-7.33-12.31l-.51-.21a56.08,56.08,0,0,0-5.57-1.93h0l-.39-.11c-1.3-.39-2.67-.77-4.06-1.15-4.2-1.16-8.4-2.21-12.63-3.12L230.92,3h0A135.28,135.28,0,0,0,209,.13a138.43,138.43,0,0,0-40.63,4.26c-2.56.67-5.1,1.38-7.63,2.19a137.59,137.59,0,0,0-14.51,5.68c-1.22.55-2.5,1.13-3.72,1.74-.64.32-1.28.65-1.91,1s-1.32.57-1.53,1.13a1,1,0,0,0,.07.88l.09.15c.41.72,1.13.53,1.72.22.87-.46,1.76-.9,2.65-1.32,3.29-1.57,6.7-3,10.12-4.26,2.72-1,5.48-2,8.27-2.82q5-1.53,10.18-2.61,6-1.26,12.1-1.91a130.88,130.88,0,0,1,14-.77,147.83,147.83,0,0,1,15.89.84A166.62,166.62,0,0,1,231.9,7.47a191.29,191.29,0,0,1,19.65,5.46l1.57.57.39.17c5.79,2.45,6.27,2.66,4.94,7.26-.3,1-.74,2.68-1.26,4.66l0,0s-.06.26-.16.69c-1.72,6.65-4.07,16.13-4.13,16.35-1.26,4.61-2.82,10-4.1,13.52a14.62,14.62,0,0,1-7.26,8.51c-3.26,1.72-8.66,1.85-8.71,1.85h-39.2Z"/><path class="cls-4" d="M268.13,3.33h-2V2.62h4.77v.71h-2V9.07h-.84Z"/><path class="cls-4" d="M277.29,6.24c-.05-.89-.11-2-.1-2.78h0c-.22.75-.51,1.62-.82,2.48L275.22,9h-.66l-1-3.07a24.67,24.67,0,0,1-.74-2.5h0c0,.8-.05,1.87-.12,2.85l-.17,2.76h-.8l.45-6.45h1.07l1.1,3.13c.27.78.48,1.54.64,2.21h0a20.83,20.83,0,0,1,.69-2.22l1.15-3.12h1.06l.4,6.45h-.82Z"/></g></g></svg>