<svg width="234" height="77" viewBox="0 0 234 77" fill="none" xmlns="http://www.w3.org/2000/svg">
<path d="M40.7156 75.6355L41.1508 74.7812C41.8999 75.516 43.234 76.0545 44.6126 76.0545C46.5763 76.0545 47.4307 75.2306 47.4307 74.1961C47.4307 71.3194 40.9727 73.0867 40.9727 69.2058C40.9727 67.6632 42.1712 66.3291 44.8394 66.3291C46.0237 66.3291 47.2525 66.6733 48.0906 67.2583L47.7161 68.143C46.8173 67.5579 45.7686 67.2745 44.8394 67.2745C42.9222 67.2745 42.0679 68.1288 42.0679 69.1775C42.0679 72.0542 48.5259 70.3152 48.5259 74.1374C48.5259 75.68 47.297 76.9999 44.6147 76.9999C43.0417 76.9999 41.497 76.4453 40.7176 75.6355H40.7156Z" fill="#0F0F0F"/>
<path d="M72.9324 70.0177C72.9324 72.2506 71.3149 73.5989 68.6467 73.5989H65.8286V76.9109H64.7192V66.4222H68.6446C71.3129 66.4222 72.9304 67.7705 72.9304 70.0177H72.9324ZM71.823 70.0177C71.823 68.3394 70.7136 67.3798 68.6163 67.3798H65.8286V72.6251H68.6163C70.7136 72.6251 71.823 71.6656 71.823 70.0177Z" fill="#0F0F0F"/>
<path d="M95.8429 74.1071H89.9983L88.7391 76.9089H87.5852L92.3811 66.4203H93.4743L98.2702 76.9089H97.1021L95.8429 74.1071ZM95.438 73.2083L92.9196 67.5742L90.4012 73.2083H95.436H95.438Z" fill="#0F0F0F"/>
<path d="M120.958 76.9109L118.561 73.5402C118.292 73.5706 118.023 73.5847 117.723 73.5847H114.905V76.9109H113.796V66.4222H117.721C120.387 66.4222 122.007 67.7705 122.007 70.0177C122.007 71.6656 121.139 72.8195 119.61 73.3155L122.173 76.9109H120.958ZM120.898 70.0177C120.898 68.3394 119.788 67.3798 117.691 67.3798H114.903V72.6393H117.691C119.788 72.6393 120.898 71.6656 120.898 70.0177Z" fill="#0F0F0F"/>
<path d="M141.667 71.9794L139.525 74.1516V76.9089H138.415V66.4203H139.525V72.7588L145.683 66.4203H146.956L142.416 71.1696L147.27 76.9089H145.952L141.667 71.9794Z" fill="#0F0F0F"/>
<path d="M162.854 66.4203H163.964V75.9514H169.839V76.911H162.857V66.4223L162.854 66.4203Z" fill="#0F0F0F"/>
<path d="M192.885 75.9513V76.9109H185.467V66.4222H192.66V67.3818H186.577V71.1129H192V72.0563H186.577V75.9533H192.885V75.9513Z" fill="#0F0F0F"/>
<path d="M157.283 9.19148L163.652 6.26818L157.627 9.9385L163.202 12.5784L157.131 11.5682L160.073 17.9776L156.415 11.9731L153.864 17.1577L154.72 11.4811L148.363 14.3984L154.402 10.7199L148.805 8.06994L154.876 9.08014L151.942 2.68896L155.593 8.67727L158.143 3.49064L157.283 9.19148Z" fill="#0F0F0F"/>
<path d="M233.195 47.6457C232.165 43.8641 207.201 44.1536 202.563 43.9936C202.015 38.3272 204.958 31.4907 213.319 27.7657C213.943 27.4883 214.346 26.796 214.321 26.0388C214.295 25.2776 213.85 24.6197 213.206 24.395C200.343 19.0383 210.362 -2.00175 221.897 7.15886C224.112 9.84732 221.84 13.9144 220.294 16.1029C219.004 17.7346 221.373 20.2287 222.771 18.3358C232.203 4.71738 218.884 -2.56252 209.556 3.6424C202.46 8.6529 202.163 20.8886 209.068 26.0631C201.586 30.6586 198.923 37.8292 199.424 44.0523C167.194 45.2771 135.095 48.9211 103.015 52.1359C83.603 53.3162 53.1432 61.665 43.1668 39.3091C48.2137 37.7887 52.5825 34.6792 55.1738 30.5169C55.7123 35.6934 52.9793 46.6173 56.6718 48.0952C60.6033 49.6641 63.2634 42.3336 66.0531 36.8149C67.3569 34.2763 68.6849 32.5859 69.7963 32.351C71.3815 35.2399 69.6202 45.929 71.8815 47.8502C77.1187 53.0874 82.8661 36.1671 87.1053 34.5881C89.7229 33.7499 88.9617 38.4284 89.0204 40.0986C88.1378 47.7125 90.0408 51.8141 97.3288 45.8177C98.0252 45.3095 100.082 43.0583 101.212 42.3336C106.208 48.5972 113.081 48.1964 118.27 42.5806C122.762 49.7714 127.72 43.7143 131.303 37.894C136.969 45.9047 147.802 45.1395 150.456 35.6246C152.971 43.4551 160.214 45.3399 165.731 39.2544C168.439 44.773 175.46 42.2162 180.657 37.7077C181.896 45.1152 186.451 42.7587 184.854 39.9204C182.736 37.4122 184.435 32.5818 182.384 31.9705C181.72 31.7376 180.985 32.0028 180.59 32.6223C179.1 35.9768 171.429 40.3031 169.389 38.726C168.316 38.0924 168.097 36.4323 168.057 35.58C171.351 27.796 173.99 26.3607 175.278 26.2129C176.602 26.0651 177.977 27.0227 179.392 29.0755C180.639 30.8833 183.165 28.7577 181.938 27.0976C179.288 23.2532 176.675 22.6823 174.936 22.8827C166.585 23.3787 166.464 40.7667 157.42 39.4265C151.63 37.2036 153.173 27.2798 154.199 23.5913C154.803 21.5608 151.748 20.5283 151.169 22.654C150.728 24.2755 149.74 28.7941 149.501 30.4501C147.63 40.5298 138.814 43.8256 132.953 34.6407C137.192 25.2513 144.444 14.5339 137.378 6.06364C134.937 3.58369 130.307 2.87109 128.117 6.5738C128.114 6.72158 127.588 8.67315 127.661 8.7683C127.529 19.2853 127.329 28.701 129.236 34.8593C129.032 35.329 128.845 35.7501 128.685 36.1125L128.72 36.1287C126.26 41.3598 122.713 46.2914 119.974 39.0479C119.507 37.9669 117.982 37.7847 117.314 38.7625C114.041 43.4693 108.384 45.8035 104.333 40.7181C107.983 39.2868 115.551 36.5943 115.099 31.4805C114.703 27.4337 110.229 25.2756 106.506 26.1765C100.801 27.4175 96.8307 34.4868 99.5091 39.8962C97.6932 41.5602 94.6788 44.7548 92.2312 45.5241C91.7919 45.3743 92.0733 41.702 92.1684 40.2727C92.4762 36.4364 92.1685 29.944 86.3381 31.3429C82.3924 32.1608 77.5884 42.7425 74.1347 45.4371C73.0638 41.5582 74.7542 32.0028 71.7337 29.7112C68.4663 27.796 65.877 29.7537 63.2655 35.2339C61.8483 38.0397 59.1234 45.5099 57.7792 44.9633C56.686 44.3722 58.2813 36.5214 58.2873 34.0961C58.2995 30.9036 58.2833 29.0431 57.8521 27.8831C56.4957 25.4922 54.5563 25.7554 52.0602 29.5533C51.0378 31.4077 45.422 36.0841 42.5129 35.9728C42.272 24.5954 43.9462 12.8698 44.9523 1.79206C45.1487 0.0591352 42.7275 -0.748618 41.9744 0.897255C40.0876 4.83075 38.0955 9.76635 36.3019 13.6695C32.6721 21.7247 28.2345 29.9136 24.6026 37.9628C24.2828 38.1227 2.00172 37.6531 1.78915 38.1308C-1.61596 39.9933 0.450995 43.2183 2.92892 45.7792C11.7818 52.0833 22.234 50.3058 26.6595 40.8942H32.2631V40.7768C36.8424 40.5885 38.4498 40.2342 39.622 40.0723C39.6442 40.1897 39.6787 40.2808 39.7009 40.3962C39.7252 40.384 39.7556 40.384 39.7819 40.3719C53.9146 72.5585 108.228 51.6764 135.647 52.3728C157.103 50.6095 178.471 48.0891 200.017 47.5526C204.475 62.5598 224.235 58.9016 233.701 49.5021C234.039 49.1863 233.701 48.3381 233.191 47.6498L233.195 47.6457ZM130.991 8.87357L131.153 7.99293C132.605 6.68514 133.696 7.31879 135.251 8.60836C139.431 14.4509 135.204 22.4313 131.682 30.3732C130.59 24.9558 130.902 16.9086 130.991 8.87357ZM101.94 34.7703C104.734 24.3707 122.661 30.9157 102.24 38.5863C101.712 37.2887 101.75 35.5456 101.94 34.7703ZM16.6708 46.6922C15.0189 47.257 4.9068 46.6841 3.03419 40.8922H23.0094C21.323 43.7811 19.3694 46.2144 16.6688 46.6922H16.6708ZM31.2894 37.9608H28.0806C32.1862 28.8771 36.6663 20.915 40.6382 11.8961C39.4094 19.6558 39.0126 28.9581 39.2616 36.7157C39.0025 36.9101 37.2837 37.4122 31.2894 37.9608ZM220.087 53.7434C211.275 56.5472 205.505 52.7595 203.406 47.5081C211.882 47.4473 220.352 47.8907 228.691 49.2531C226.019 51.2654 223.261 52.7068 220.087 53.7434Z" fill="#0F0F0F"/>
</svg>
