<svg width="284" height="55" viewBox="0 0 284 55" fill="none" xmlns="http://www.w3.org/2000/svg">
<path d="M50.5867 29.8433C50.7179 29.8433 51.0238 29.8436 51.0457 30.5786C51.0238 34.5678 50.7837 52.9727 50.783 53.1069C50.783 53.3016 50.7319 53.612 50.3894 53.6265C50.0464 53.6409 48.2935 53.6772 48.1746 53.6772C47.9997 53.6772 47.6205 53.6117 47.657 52.8257C47.6716 52.4052 47.8099 39.6792 47.8318 38.6772C47.8464 37.9346 47.7589 37.7755 47.5476 37.7827C46.7095 37.7971 45.9588 40.7974 44.1296 40.7036C42.5633 40.6242 43.1092 38.433 42.4832 38.396C41.7836 38.3527 40.3471 42.0527 38.5398 42.1753C36.3179 42.3264 36.7765 39.9827 36.0701 39.8667C35.1373 39.7225 32.8849 45.1533 29.7878 43.769C27.2081 42.6152 30.4217 33.9901 34.6628 34.7827C36.237 35.0784 35.8295 33.2538 37.615 33.6216C38.6421 33.838 38.6863 35.1072 38.6863 35.9653C38.6863 37.797 39.3714 38.4175 40.1511 38.4175C41.3752 38.4168 42.1835 35.2876 42.2126 35.1938C42.7082 33.6362 43.0366 31.8195 44.1296 31.8267C45.9149 31.8411 44.9461 36.3618 46.1042 36.4204C47.4889 36.4853 48.896 29.8433 50.5867 29.8433ZM2.13843 22.5522C3.86558 21.3119 27.5652 6.20401 34.4519 15.9106C37.8113 20.6413 35.7635 28.1198 23.8269 36.8022C23.0983 37.3286 22.9588 37.5089 22.9587 38.4604C22.9587 39.4124 22.9369 40.87 22.9587 41.144C22.9806 41.4182 23.0104 41.995 23.5857 42.2905C24.1614 42.5718 36.2375 48.218 36.7185 48.4487C37.3088 48.73 38.1244 49.2566 37.7019 50.1938C37.4032 50.8643 37.1187 51.3905 37.0603 51.4917C36.6959 52.1047 35.8143 52.4723 34.7722 51.9819C33.0882 51.1956 24.0684 46.9346 23.783 46.8042C23.4623 46.66 22.9451 46.7685 22.9451 47.6411V50.021C22.9451 50.3456 22.988 51.1386 22.325 51.6001C21.618 52.0977 20.4665 52.7755 20.2625 52.8765C19.9708 53.0209 19.2278 53.5974 19.2205 52.4009C19.1986 50.0283 19.1985 45.6292 19.2058 45.3911C19.2131 45.1532 19.2645 44.6772 18.5505 44.3599C17.9095 44.0715 13.8234 42.162 13.573 42.0454C13.2451 41.894 12.9973 41.3164 13.6677 40.9126C14.4624 40.4364 18.4335 38.1368 18.7107 37.9419C19.1698 37.6174 19.1692 37.3069 19.1765 36.355C19.1838 35.2864 19.1184 21.4344 19.1257 21.2036C19.1403 20.8432 19.0896 20.5474 19.7087 20.1509C20.4152 19.7041 21.1656 19.2141 21.4138 19.0552C21.8073 18.8028 22.9951 18.3121 22.9734 19.646C22.9588 20.5402 22.9661 33.2182 22.9734 33.5571C22.9807 34.0186 23.1995 34.725 23.95 34.1772C32.9935 27.5646 34.1964 21.976 32.3894 18.2837C28.7019 10.7477 9.58655 22.7906 1.31519 29.5405C0.0181238 30.6005 0.0476074 30.1316 0.0476074 29.6196C0.0403202 29.0139 0.0766729 26.7781 0.127686 26.3599C0.200569 25.7683 0.346028 23.8357 2.13843 22.5522ZM62.7195 13.7544C63.2077 1.39394 75.2763 -3.22098 77.8416 2.75732C80.4938 8.93017 74.7152 14.0646 70.5759 17.1294C69.4099 17.9948 68.6591 19.0046 69.7449 19.8267C71.625 21.2473 73.9062 22.7326 75.8738 24.4272C77.3604 25.7037 77.2218 27.9252 75.7498 30.0093C75.5454 30.2982 74.7516 31.4811 73.28 33.1392C71.6476 34.9781 69.5116 37.5671 67.8865 40.3579C66.9175 42.0305 66.7712 42.0667 65.241 39.7231C64.7017 38.9082 64.4545 37.516 65.4529 36.2612C65.5993 36.0801 66.8892 34.4366 68.3171 32.6343C69.7381 30.8388 70.9693 29.4107 71.5232 28.603C72.3467 27.3843 72.7402 25.141 71.4285 23.9438C70.3645 22.9776 69.075 21.7731 67.8435 20.4751C66.6265 19.1987 67.3474 17.8644 68.1199 16.9702C69.8474 14.9723 77.0029 7.20642 72.8054 3.11768C70.0726 0.464173 65.8097 6.83885 66.2615 13.6392C66.3489 14.9452 66.6185 27.5649 66.7351 30.4565C66.8587 33.3548 64.5499 34.4728 63.9519 34.7183C63.296 34.9923 62.6179 35.1866 62.8074 33.4126C63.1353 30.3617 62.5446 18.1677 62.7195 13.7544ZM35.5154 37.437C35.6757 36.8745 35.428 36.3266 34.8523 36.478C34.0213 36.6952 32.0182 39.5719 31.989 40.8481C31.9745 41.396 32.3238 41.5182 32.5642 41.4966C33.3731 41.4173 35.0926 38.9442 35.5154 37.437ZM55.4402 28.9634C56.7956 28.1343 58.5516 28.1198 59.4333 29.0933C60.3078 30.0668 59.7902 31.6826 58.3181 32.6489C57.0283 33.4924 54.9373 33.7012 54.0554 32.728C53.1809 31.7545 53.6547 30.0523 55.4402 28.9634ZM98.7712 16.0688C100.783 16.0688 100.142 23.6918 103.443 21.6294C103.902 21.3409 104.252 21.6582 104.048 22.0981C103.85 22.5176 102.422 25.3501 100.324 25.1411C97.8535 24.8959 98.2392 21.0451 97.2117 20.9009C96.1842 20.7586 94.8216 27.2175 92.3298 26.9009C91.1857 26.7494 91.8849 24.7231 91.28 24.687C90.5804 24.6511 89.8513 28.5949 87.4392 28.5444C85.1516 28.4937 85.6249 25.4016 84.78 26.1938C84.1679 26.7635 81.7774 31.2124 79.1394 30.7729C77.1864 30.4484 77.9659 25.675 80.531 22.7183C82.8047 20.1005 84.2479 21.0021 85.0496 20.4829C85.5888 20.1367 85.7709 19.4223 86.6746 19.5737C88.4233 19.8624 87.3089 23.8213 88.8611 24.4126C90.3767 24.9954 91.5426 17.5118 93.6267 17.4253C95.5214 17.3532 94.2101 20.7563 95.1648 20.6626C95.9443 20.5887 96.5858 16.0695 98.7712 16.0688ZM84.6775 23.6704C84.8669 23.1152 84.6921 22.6746 84.1531 22.8042C83.3661 22.9845 81.4055 25.4364 81.3542 26.5903C81.3324 27.0879 81.6829 27.3693 81.9744 27.3188C82.8197 27.1667 84.1965 25.0115 84.6775 23.6704Z" fill="white"/>
<rect x="133.878" y="3.35767" width="1.49085" height="47.7073" fill="#898989"/>
<path d="M191.001 15.2844C188.052 15.2844 185.746 17.5013 183.659 20.3174C180.791 16.6731 178.392 15.2844 175.522 15.2844C169.67 15.2844 165.186 22.8847 165.186 30.9291C165.186 35.9631 167.626 39.1381 171.714 39.1381C174.656 39.1381 176.772 37.7539 180.533 31.1923C180.533 31.1923 182.101 28.4291 183.18 26.5256C183.558 27.1347 183.956 27.7909 184.374 28.4944L186.138 31.4556C189.574 37.1935 191.489 39.1381 194.958 39.1381C198.94 39.1381 201.156 35.9197 201.156 30.7811C201.156 22.3583 196.571 15.2844 191.001 15.2844ZM177.665 29.4157C174.615 34.1864 173.56 35.2557 171.862 35.2557C170.115 35.2557 169.076 33.7248 169.076 30.9949C169.076 25.1549 171.994 19.1833 175.473 19.1833C177.356 19.1833 178.93 20.2688 181.341 23.7134C179.052 27.2177 177.665 29.4157 177.665 29.4157ZM189.175 28.8151L187.066 25.305C186.495 24.3788 185.947 23.5261 185.421 22.7472C187.321 19.8195 188.889 18.3607 190.754 18.3607C194.628 18.3607 197.727 24.0527 197.727 31.0443C197.727 33.7093 196.852 35.2557 195.04 35.2557C193.303 35.2557 192.473 34.1109 189.175 28.8151Z" fill="white"/>
<path d="M208.922 15.6715H213.418L221.062 29.4706L228.706 15.6715H233.104V38.3459H229.436V20.9677L222.733 33.0013H219.293L212.59 20.9677V38.3459H208.922V15.6715Z" fill="white"/>
<path d="M244.926 38.7508C243.227 38.7508 241.734 38.3756 240.446 37.6252C239.159 36.8748 238.155 35.8355 237.436 34.5075C236.716 33.1793 236.356 31.6569 236.357 29.9402C236.357 28.2019 236.708 26.6633 237.411 25.3243C238.115 23.9856 239.091 22.9382 240.341 22.1822C241.591 21.4266 243.027 21.0487 244.65 21.0485C246.262 21.0485 247.649 21.4291 248.813 22.1902C249.976 22.9516 250.871 24.0179 251.499 25.389C252.126 26.7604 252.44 28.3692 252.44 30.2155V31.2195H239.992C240.219 32.6018 240.779 33.6897 241.672 34.483C242.564 35.2767 243.692 35.6735 245.056 35.6734C246.148 35.6734 247.09 35.5115 247.879 35.1875C248.669 34.8636 249.41 34.3724 250.103 33.7138L252.05 36.0946C250.114 37.8655 247.739 38.751 244.926 38.7508ZM247.604 25.2999C246.835 24.5172 245.829 24.1258 244.585 24.1256C243.373 24.1256 242.359 24.5252 241.542 25.3243C240.725 26.1233 240.208 27.1977 239.992 28.5473H248.918C248.81 27.1652 248.372 26.0827 247.604 25.2999Z" fill="white"/>
<path d="M256.89 24.4499H253.515V21.4536H256.89V16.4977H260.428V21.4536H265.557V24.4499H260.428V32.0458C260.428 33.309 260.645 34.2105 261.078 34.7504C261.51 35.2905 262.251 35.5604 263.301 35.5602C263.766 35.5602 264.161 35.5413 264.486 35.5036C264.81 35.4659 265.167 35.4146 265.557 35.3497V38.3135C265.112 38.4418 264.66 38.5393 264.202 38.6052C263.678 38.6821 263.149 38.72 262.619 38.7185C258.8 38.7185 256.89 36.6346 256.89 32.4669V24.4499Z" fill="white"/>
<path d="M284.001 38.3458H280.527V35.9812C279.911 36.8667 279.126 37.5496 278.174 38.03C277.222 38.5103 276.14 38.7505 274.928 38.7508C273.435 38.7508 272.113 38.3702 270.96 37.6089C269.808 36.8477 268.902 35.8004 268.242 34.4669C267.582 33.1334 267.252 31.6083 267.252 29.8916C267.252 28.164 267.587 26.6362 268.258 25.308C268.929 23.98 269.857 22.9381 271.041 22.1822C272.226 21.4266 273.587 21.0487 275.123 21.0485C276.281 21.0485 277.319 21.2725 278.239 21.7207C279.146 22.1587 279.932 22.8121 280.527 23.6236V21.4535H284.001V38.3458ZM280.463 27.365C280.084 26.404 279.486 25.6454 278.669 25.0893C277.852 24.5333 276.908 24.2553 275.837 24.2553C274.322 24.2553 273.116 24.7628 272.218 25.7777C271.32 26.7927 270.871 28.1639 270.871 29.8916C270.871 31.6301 271.304 33.0067 272.169 34.0216C273.035 35.0366 274.209 35.544 275.691 35.5439C276.784 35.5439 277.758 35.2632 278.612 34.7017C279.467 34.1405 280.084 33.3847 280.463 32.4343V27.365Z" fill="white"/>
</svg>
