<svg xmlns="http://www.w3.org/2000/svg" width="684" height="207" fill="none"><path fill="#3A4850" fill-rule="evenodd" d="M248.273 11.127v5.352h1.957v-3.395h39.577V35.87H261.21l-.067.018h-12.87v1.939h6.855a4.503 4.503 0 0 0-3.032 3.236h-4.125v2.11h4.127a4.495 4.495 0 0 0 4.364 3.432 4.495 4.495 0 0 0 4.364-3.432h2.271a4.495 4.495 0 0 0 4.364 3.432c2.139 0 3.931-1.5 4.381-3.505h18.703v-.007h4.416a4.496 4.496 0 0 0 4.383 3.512 4.496 4.496 0 0 0 4.383-3.512h7.019V32.835c0-.838-.612-1.48-1.266-2.165l-.055-.055c-.539-.563-.997-1.077-1.212-1.633-.427-1.094-.83-2.297-1.221-3.464l-.002-.005a77.002 77.002 0 0 0-.966-2.783c-1.205-3.175-4.827-3.211-4.98-3.211h-9.28v-8.392h-43.491Zm41.535 26.7v3.315h-17.963a4.504 4.504 0 0 0-3.05-3.315h21.013Zm9.536-.202a4.494 4.494 0 0 0-4.382 3.511h-3.197v-19.66h9.273c.098 0 2.429.043 3.157 1.951.306.802.624 1.756.929 2.68.398 1.199.814 2.44 1.267 3.59.195.5.485.947.8 1.346h-8.65a.982.982 0 0 0-.979.979c0 .538.441.979.979.979h10.247v8.135h-5.061a4.496 4.496 0 0 0-4.383-3.511Zm-38.517 3.438h2.268a4.503 4.503 0 0 1 3.032-3.236h-8.331a4.503 4.503 0 0 1 3.031 3.236Zm35.985 1.052a2.533 2.533 0 0 0 2.532 2.532 2.537 2.537 0 0 0 2.532-2.532 2.537 2.537 0 0 0-2.532-2.533 2.537 2.537 0 0 0-2.532 2.533Zm-29.351 2.532a2.538 2.538 0 0 1-2.533-2.532 2.538 2.538 0 0 1 2.533-2.533 2.538 2.538 0 0 1 2.532 2.533 2.538 2.538 0 0 1-2.532 2.532Zm-13.532-2.532a2.538 2.538 0 0 0 2.533 2.532 2.538 2.538 0 0 0 2.532-2.532 2.538 2.538 0 0 0-2.532-2.533 2.538 2.538 0 0 0-2.533 2.533Z" clip-rule="evenodd"/><path fill="#3A4850" d="M263.951 19.745h-20.399a.981.981 0 0 0-.979.979c0 .538.44.979.979.979h20.399c.539 0 .979-.44.979-.98a.981.981 0 0 0-.979-.978ZM233.959 25.416h27.165c.538 0 .978.44.978.979 0 .538-.44.978-.978.978h-27.165a.981.981 0 0 1-.979-.979c0-.538.44-.978.979-.978ZM256.416 30.554h-14.405a.981.981 0 0 0-.979.979c0 .538.44.979.979.979h14.405c.538 0 .979-.44.979-.98a.982.982 0 0 0-.979-.978Z"/><path fill="#3A4850" fill-rule="evenodd" d="M269.919 20.027c0-.128.107-.228.222-.228a1.032 1.032 0 0 0 0-2.064 2.293 2.293 0 0 0-2.286 2.292v5.597c0 .044.002.088.008.13-.002.047-.002.093-.002.14a4.5 4.5 0 0 0 4.494 4.5 4.497 4.497 0 0 0 4.495-4.5.27.27 0 0 1 .264-.271c.143 0 .265.115.265.27 0 2.49 2.008 4.5 4.494 4.5a4.497 4.497 0 0 0 4.493-4.638c.005-.043.008-.087.008-.131v-5.597a2.294 2.294 0 0 0-2.286-2.293 1.032 1.032 0 1 0 0 2.065c.114 0 .221.1.221.228v2.084a4.464 4.464 0 0 0-2.436-.719 4.495 4.495 0 0 0-3.93 2.318 2.322 2.322 0 0 0-1.656 0 4.492 4.492 0 0 0-6.368-1.6v-2.083Zm2.436 3.43c1.342 0 2.43 1.09 2.43 2.436a2.432 2.432 0 0 1-2.43 2.436 2.436 2.436 0 0 1 0-4.872Zm9.518 4.872a2.428 2.428 0 0 1-2.43-2.436 2.436 2.436 0 0 1 2.43-2.436 2.436 2.436 0 0 1 0 4.872ZM394.222 28.59c0-.127.107-.227.222-.227a1.032 1.032 0 0 0 0-2.065 2.293 2.293 0 0 0-2.286 2.292v5.597c0 .045.002.088.008.131-.002.046-.002.092-.002.139a4.5 4.5 0 0 0 4.494 4.5 4.497 4.497 0 0 0 4.495-4.5.27.27 0 0 1 .264-.271c.143 0 .265.116.265.27 0 2.49 2.008 4.501 4.494 4.501a4.497 4.497 0 0 0 4.493-4.639c.005-.043.008-.086.008-.13V28.59a2.294 2.294 0 0 0-2.286-2.292 1.032 1.032 0 1 0 0 2.065c.114 0 .221.1.221.227v2.085a4.464 4.464 0 0 0-2.436-.72 4.495 4.495 0 0 0-3.93 2.318 2.32 2.32 0 0 0-1.656 0 4.492 4.492 0 0 0-6.368-1.6V28.59Zm2.436 3.43c1.342 0 2.43 1.09 2.43 2.436a2.432 2.432 0 0 1-2.43 2.436 2.435 2.435 0 0 1-2.429-2.436 2.431 2.431 0 0 1 2.429-2.435Zm9.518 4.872a2.428 2.428 0 0 1-2.43-2.436 2.436 2.436 0 0 1 2.43-2.435 2.436 2.436 0 0 1 0 4.871Z" clip-rule="evenodd"/><path fill="#3A4850" fill-rule="evenodd" d="M434.455 45.149h.96c.465 0 .844.38.844.844a.846.846 0 0 1-.844.844h-52.373a.846.846 0 0 1-.844-.844c0-.465.379-.844.844-.844h.96V20.088c-2.165-1.4-3.609-3.835-3.609-6.6a.84.84 0 0 1 .11-.422l6.705-11.733a2.661 2.661 0 0 1 2.3-1.333h39.441c.949 0 1.829.508 2.3 1.333l6.705 11.733c.073.128.11.275.11.422a7.832 7.832 0 0 1-3.609 6.6v25.06Zm-10.326-30.817a6.155 6.155 0 0 0 6.093 5.31h.006c3.101 0 5.676-2.313 6.092-5.31h-12.191ZM389.508 1.688a.958.958 0 0 0-.832.484l-5.983 10.465h53.071l-5.983-10.466a.95.95 0 0 0-.832-.483h-39.441Zm26.724 17.947c3.108 0 5.677-2.312 6.093-5.31H410.14a6.155 6.155 0 0 0 6.092 5.31Zm-13.995 0c3.107 0 5.676-2.312 6.092-5.31h-12.185a6.155 6.155 0 0 0 6.093 5.31Zm-13.996 0c3.108 0 5.677-2.312 6.093-5.31h-12.185a6.155 6.155 0 0 0 6.092 5.31Zm30.866 25.508h9.145v-2.826h-9.145v2.826Zm0-4.514h9.145v-15.47h-9.145v15.47Zm10.833 4.514h2.82V20.9a7.916 7.916 0 0 1-2.538.423c-3.053 0-5.701-1.756-6.998-4.307a7.844 7.844 0 0 1-6.998 4.307c-3.052 0-5.701-1.756-6.997-4.307a7.846 7.846 0 0 1-6.998 4.307c-3.053 0-5.701-1.756-6.998-4.307a7.844 7.844 0 0 1-9.536 3.884v24.242h31.722V24.315c0-.465.379-.844.844-.844h10.833c.465 0 .844.379.844.844v20.828ZM536.409 11.065c0-.127.107-.227.222-.227a1.032 1.032 0 0 0 0-2.065 2.294 2.294 0 0 0-2.287 2.292v5.597c0 .045.003.088.009.131-.002.046-.002.092-.002.139 0 .678.15 1.322.419 1.9a9.694 9.694 0 0 1-.24-.457l-9.463 3.157c-.049.043-.104.085-.159.128-.128.11-.257.22-.392.324l-5.456 7.096a.728.728 0 0 0-.135.63c.055.22.202.404.41.502l5.169 2.434v9.775a.75.75 0 0 0 .428.679l19.048 8.961s.013 0 .019.006c.012 0 .018.007.03.013a.687.687 0 0 0 .269.055.651.651 0 0 0 .263-.055.11.11 0 0 0 .043-.013c.013 0 .019 0 .031-.012l17.922-8.961a.758.758 0 0 0 .416-.673v-9.903l4.631-2.313a.747.747 0 0 0 .281-1.095h-.006l-4.704-6.795h.006a1.307 1.307 0 0 0-.104-.098 10.57 10.57 0 0 1-.617-.557l-.093-.091c-.093-.093-.187-.185-.274-.282l-.098.104-9.17-3.058a8.791 8.791 0 0 1-.819 1.309l8.129 2.71-15.849 6.936-16.889-6.955 7.903-2.636a4.487 4.487 0 0 0 3.545 1.735 4.497 4.497 0 0 0 4.495-4.5.27.27 0 0 1 .264-.271c.142 0 .264.116.264.27 0 2.49 2.009 4.501 4.495 4.501a4.497 4.497 0 0 0 4.492-4.639.944.944 0 0 0 .009-.13v-5.598a2.294 2.294 0 0 0-2.287-2.292 1.032 1.032 0 0 0 0 2.065c.115 0 .222.1.222.227v2.085a4.467 4.467 0 0 0-2.436-.72 4.495 4.495 0 0 0-3.93 2.318 2.32 2.32 0 0 0-1.656 0 4.492 4.492 0 0 0-6.368-1.6v-2.083Zm2.436 3.43c1.342 0 2.43 1.09 2.43 2.437a2.432 2.432 0 0 1-2.43 2.435 2.436 2.436 0 0 1 0-4.871Zm9.518 4.872a2.428 2.428 0 0 1-2.43-2.436 2.436 2.436 0 0 1 2.43-2.435 2.436 2.436 0 0 1 0 4.871Zm-27.553 9.89 4.697 2.209v.006c.031.006.086.036.086.036l12.839 6.044 4.735-7.108-17.672-7.279-4.685 6.092ZM543.54 50.2V32.567l-4.227 6.343a.734.734 0 0 1-.942.263l-12.374-5.823v8.594l17.543 8.255Zm1.499-.028 16.43-8.215V33.27l-10.68 5.34a.74.74 0 0 1-.337.08.76.76 0 0 1-.587-.288l-4.826-6.141v17.91Zm.44-19.776 5.187 6.6-.006.006 15.488-7.744-4.196-6.068-16.473 7.206Z" clip-rule="evenodd"/><path fill="#3A4850" d="M219.539 26.929h-41.454v-1.154h41.449c-.356-.666-.531-1.544-.549-2.2.874 1.174 2.014 2.202 3.393 2.777-1.375.55-2.465 1.639-3.393 2.777.054-.713.198-1.54.554-2.2ZM360.955 26.929h-41.449v-1.154h41.445c-.356-.666-.532-1.544-.55-2.2.36.482.766.94 1.212 1.352a7.49 7.49 0 0 0 2.181 1.425c-1.374.55-2.465 1.639-3.393 2.777.031-.401.09-.838.198-1.26.086-.33.203-.65.356-.94ZM494.058 26.929H452.6v-1.154h41.454c-.356-.666-.532-1.544-.55-2.2.874 1.174 2.014 2.202 3.393 2.777-1.375.55-2.465 1.639-3.393 2.777.054-.713.198-1.54.554-2.2ZM160.35 38.714h-2.108V41.3h2.108v-2.587ZM154.232 38.714h2.108V41.3h-2.108v-2.587ZM142.877 38.714h-2.109V41.3h2.109v-2.587ZM136.753 38.714h2.109V41.3h-2.109v-2.587ZM117.153 38.714h-2.109V41.3h2.109v-2.587ZM111.034 38.714h2.109V41.3h-2.109v-2.587Z"/><path fill="#3A4850" fill-rule="evenodd" d="M106.618 44.574V26.693l-3.204 1.157a1.06 1.06 0 0 1-1.351-.636 1.028 1.028 0 0 1 .04-.807.996.996 0 0 1 .352-.421l.157-.09.082-.034 3.924-1.376 20.529-7.48h.058l8.913 3.27v-5.11l-1.807.652a1.068 1.068 0 0 1-1.352-.636 1.047 1.047 0 0 1 .041-.807.981.981 0 0 1 .194-.284 1.07 1.07 0 0 1 .405-.26l2.519-.888 14.667-5.328 14.585 5.328 2.523.887c.266.098.473.288.595.545.122.257.135.544.036.807a1.032 1.032 0 0 1-.545.594l-.216.075-.176.025c-.14.008-.28-.014-.415-.064l-1.802-.654v29.416h2.978c.582 0 1.05.471 1.05 1.052a1.05 1.05 0 0 1-1.05 1.052l-61.73.007-3.442-.007a1.053 1.053 0 0 1 0-2.104h3.442ZM150.834 9.88l12.423 4.545v30.15h-15.586V26.688l3.199 1.162a1.047 1.047 0 0 0 .987-.15 1.065 1.065 0 0 0 .419-1.003.992.992 0 0 0-.09-.29 1.042 1.042 0 0 0-.59-.544l-3.925-1.377-9.444-3.442v-6.62l.099-.037 12.418-4.527.09.019Zm-5.267 34.701-.014-18.614-18.298-6.692h-.068l-.045-.018-18.316 6.674-.099.036V44.58h10.9V31.031h14.594v13.55h11.346Zm-13.45-.012h-10.382V42.83h10.382v1.738Zm0-3.31h-10.382V39.62h10.382v1.64Zm-10.382-4.856v1.64h10.382v-1.64h-10.382Zm10.382-1.578h-10.382v-1.682h10.382v1.681Z" clip-rule="evenodd"/><path fill="#3A4850" d="m95.16 61.507 3.021 7.54 3.021-7.54h1.581v9.242h-1.219v-3.6l.115-3.884-3.035 7.484h-.933l-3.028-7.465.121 3.866v3.599h-1.219v-9.242h1.575Zm13.831 9.242c-.068-.136-.123-.377-.165-.724-.546.567-1.198.85-1.955.85-.677 0-1.234-.19-1.669-.57a1.871 1.871 0 0 1-.648-1.46c0-.716.271-1.27.813-1.664.545-.397 1.311-.596 2.297-.596h1.143v-.54c0-.41-.123-.736-.368-.978-.246-.245-.607-.368-1.086-.368-.419 0-.77.106-1.053.318-.284.211-.426.467-.426.768h-1.18c0-.343.12-.673.362-.99.245-.322.575-.576.99-.762.419-.186.878-.28 1.377-.28.792 0 1.411.2 1.86.597.449.394.681.938.698 1.632v3.16c0 .631.081 1.133.242 1.505v.102h-1.232Zm-1.949-.895c.369 0 .718-.096 1.048-.286.33-.19.569-.438.717-.743v-1.409h-.92c-1.439 0-2.159.421-2.159 1.263 0 .368.123.656.369.864.245.207.56.31.945.31Zm5.891-5.974.038.864c.525-.66 1.21-.99 2.057-.99 1.451 0 2.183.818 2.196 2.456v4.539h-1.174v-4.545c-.005-.495-.119-.861-.343-1.098-.22-.237-.565-.356-1.035-.356-.381 0-.715.102-1.003.305-.287.203-.512.47-.673.8v4.894h-1.174V63.88h1.111Zm10.302 6.19c-.457.537-1.128.806-2.012.806-.732 0-1.291-.212-1.676-.635-.381-.428-.573-1.058-.577-1.892V63.88h1.174v4.437c0 1.042.423 1.562 1.269 1.562.898 0 1.494-.334 1.79-1.003V63.88h1.175v6.869h-1.117l-.026-.68Zm3.51.679v-5.96h-1.085v-.909h1.085v-.704c0-.736.197-1.306.591-1.708.393-.402.95-.603 1.669-.603.271 0 .54.036.806.108l-.063.952a3.377 3.377 0 0 0-.635-.057c-.381 0-.675.112-.882.337-.208.22-.311.537-.311.952v.724h1.466v.907h-1.466v5.96h-1.175Zm8.183 0c-.068-.136-.123-.377-.165-.724-.546.567-1.198.85-1.956.85-.677 0-1.233-.19-1.669-.57a1.87 1.87 0 0 1-.647-1.46c0-.716.27-1.27.812-1.664.546-.397 1.312-.596 2.298-.596h1.143v-.54c0-.41-.123-.736-.369-.978-.245-.245-.607-.368-1.085-.368-.419 0-.77.106-1.054.318-.283.211-.425.467-.425.768h-1.181c0-.343.121-.673.362-.99.245-.322.576-.576.99-.762.419-.186.878-.28 1.378-.28.791 0 1.411.2 1.86.597.448.394.681.938.698 1.632v3.16c0 .631.08 1.133.241 1.505v.102h-1.231Zm-1.949-.895c.368 0 .717-.096 1.047-.286.33-.19.569-.438.718-.743v-1.409h-.921c-1.439 0-2.158.421-2.158 1.263 0 .368.123.656.368.864.246.207.561.31.946.31Zm7.535.063c.418 0 .785-.127 1.098-.38a1.34 1.34 0 0 0 .52-.953h1.111a2.133 2.133 0 0 1-.406 1.124c-.25.355-.584.639-1.003.85a2.866 2.866 0 0 1-1.32.318c-.936 0-1.68-.311-2.235-.934-.55-.626-.825-1.48-.825-2.564v-.197c0-.668.123-1.263.368-1.783.246-.52.597-.925 1.054-1.213.461-.288 1.005-.431 1.631-.431.77 0 1.409.23 1.917.691.512.462.785 1.06.819 1.797h-1.111c-.034-.445-.203-.808-.508-1.092-.3-.288-.672-.432-1.117-.432-.596 0-1.06.216-1.39.648-.326.427-.489 1.047-.489 1.86v.222c0 .791.163 1.4.489 1.828.326.427.791.641 1.397.641Zm5.643-7.7v1.663h1.282v.908h-1.282v4.26c0 .275.057.482.171.622.114.135.309.203.584.203.135 0 .322-.026.559-.077v.953a3.41 3.41 0 0 1-.902.127c-.525 0-.92-.16-1.187-.477-.266-.317-.4-.767-.4-1.352v-4.259h-1.25v-.907h1.25v-1.664h1.175Zm6.9 7.853c-.458.537-1.128.806-2.013.806-.732 0-1.29-.212-1.675-.635-.381-.428-.574-1.058-.578-1.892V63.88h1.174v4.437c0 1.042.423 1.562 1.27 1.562.897 0 1.494-.334 1.79-1.003V63.88h1.174v6.869h-1.117l-.025-.68Zm6.252-5.136a3.523 3.523 0 0 0-.578-.044c-.77 0-1.292.328-1.568.984v4.875h-1.174V63.88h1.143l.019.793c.385-.614.931-.92 1.637-.92.229 0 .402.03.521.088v1.092Zm3.809 5.942c-.931 0-1.689-.305-2.273-.915-.584-.613-.876-1.432-.876-2.456v-.216c0-.681.129-1.288.387-1.822a3.057 3.057 0 0 1 1.092-1.256c.47-.305.978-.457 1.524-.457.892 0 1.586.294 2.082.882.495.588.742 1.43.742 2.526v.489h-4.653c.017.677.214 1.225.591 1.644.381.415.863.622 1.447.622.415 0 .766-.085 1.054-.254.287-.17.539-.393.755-.673l.717.559c-.575.884-1.438 1.327-2.589 1.327Zm-.146-6.158c-.474 0-.872.174-1.194.52-.321.344-.52.826-.596 1.448h3.44v-.089c-.034-.596-.195-1.058-.482-1.383-.288-.33-.678-.496-1.168-.496Zm7.509.216a3.523 3.523 0 0 0-.578-.044c-.77 0-1.293.328-1.568.984v4.875h-1.174V63.88h1.143l.019.793c.385-.614.931-.92 1.637-.92.229 0 .402.03.521.088v1.092Zm4.062 3.333c0-.445.123-.853.368-1.225.25-.373.724-.806 1.422-1.302-.41-.499-.685-.901-.825-1.206a2.174 2.174 0 0 1-.209-.907c0-.703.207-1.253.622-1.65.414-.399.977-.597 1.688-.597.635 0 1.16.186 1.574.558.415.368.623.834.623 1.397 0 .372-.096.717-.286 1.034-.186.313-.514.644-.984.99l-.679.502 2.056 2.456c.288-.55.432-1.161.432-1.834h1.06c0 1.08-.26 1.974-.781 2.685l1.321 1.58h-1.409l-.616-.73c-.313.28-.682.494-1.105.642a3.92 3.92 0 0 1-1.282.216c-.901 0-1.625-.24-2.171-.718-.546-.478-.819-1.108-.819-1.891Zm2.99 1.65c.622 0 1.191-.237 1.708-.71l-2.254-2.699-.209.153c-.707.52-1.06 1.056-1.06 1.606 0 .5.16.899.482 1.2.326.3.77.45 1.333.45Zm-1.06-6.328c0 .406.25.914.749 1.523l.749-.527c.288-.203.485-.396.59-.578.106-.186.159-.41.159-.672a.9.9 0 0 0-.317-.705c-.212-.19-.478-.286-.8-.286-.347 0-.622.119-.825.356-.203.233-.305.529-.305.889ZM114.71 84.425c0 .906-.152 1.697-.457 2.374-.304.673-.736 1.187-1.295 1.542-.558.356-1.21.534-1.955.534-.728 0-1.373-.178-1.936-.534-.563-.36-1.001-.87-1.314-1.53-.309-.664-.467-1.432-.476-2.304v-.666c0-.889.155-1.674.464-2.355.309-.681.744-1.202 1.307-1.562.567-.364 1.215-.546 1.943-.546.74 0 1.392.18 1.955.54.567.356 1.003.874 1.307 1.555.305.677.457 1.467.457 2.368v.584Zm-1.212-.597c0-1.096-.22-1.936-.66-2.52-.44-.588-1.056-.882-1.847-.882-.771 0-1.378.294-1.822.882-.44.584-.667 1.397-.679 2.438v.679c0 1.062.222 1.898.666 2.507.449.605 1.064.908 1.847.908.787 0 1.397-.286 1.828-.857.432-.575.654-1.399.667-2.47v-.685Zm8.658 1.562c0 1.045-.239 1.887-.717 2.526-.478.64-1.126.959-1.943.959-.833 0-1.489-.265-1.967-.794v3.307h-1.175v-9.508h1.073l.057.761c.478-.592 1.143-.888 1.993-.888.826 0 1.477.31 1.955.933.483.622.724 1.487.724 2.596v.108Zm-1.174-.134c0-.774-.165-1.386-.495-1.834-.33-.449-.783-.673-1.359-.673-.711 0-1.244.315-1.599.946v3.282c.351.626.888.94 1.612.94.563 0 1.009-.223 1.339-.667.335-.449.502-1.113.502-1.994Zm4.265-5.04v1.663h1.283v.908h-1.283v4.26c0 .275.058.482.172.622.114.135.309.203.584.203.135 0 .321-.026.558-.077v.953a3.404 3.404 0 0 1-.901.127c-.525 0-.92-.16-1.187-.477-.267-.317-.4-.767-.4-1.352v-4.259h-1.25v-.907h1.25v-1.664h1.174Zm3.936 8.532h-1.174V81.88h1.174v6.868Zm-1.27-8.69a.71.71 0 0 1 .172-.483c.118-.13.292-.197.52-.197.229 0 .402.066.521.197a.696.696 0 0 1 .178.483c0 .19-.06.349-.178.476-.119.127-.292.19-.521.19-.228 0-.402-.063-.52-.19a.687.687 0 0 1-.172-.476Zm5.91 7.858a1.69 1.69 0 0 0 1.098-.38c.313-.255.487-.572.521-.953h1.111a2.135 2.135 0 0 1-.407 1.124 2.664 2.664 0 0 1-1.003.85 2.86 2.86 0 0 1-1.32.318c-.935 0-1.68-.311-2.234-.934-.55-.626-.825-1.48-.825-2.564v-.197c0-.668.122-1.263.368-1.783.245-.52.596-.925 1.053-1.213.462-.288 1.005-.431 1.632-.431.77 0 1.409.23 1.917.691.512.462.785 1.06.819 1.797h-1.111c-.034-.445-.203-.808-.508-1.092a1.554 1.554 0 0 0-1.117-.432c-.597 0-1.06.216-1.39.648-.326.427-.489 1.047-.489 1.86v.222c0 .791.163 1.4.489 1.828.325.427.791.641 1.396.641Zm8.29.832c-.068-.136-.123-.377-.165-.724-.546.567-1.197.85-1.955.85-.677 0-1.234-.19-1.669-.57a1.871 1.871 0 0 1-.648-1.46c0-.716.271-1.27.813-1.664.546-.397 1.311-.596 2.297-.596h1.143v-.54c0-.41-.123-.736-.368-.978-.246-.245-.607-.368-1.086-.368-.418 0-.77.106-1.053.318-.284.211-.426.467-.426.768h-1.18c0-.343.12-.673.362-.99.245-.322.575-.576.99-.762.419-.186.878-.28 1.377-.28.792 0 1.412.2 1.86.597.449.394.681.938.698 1.632v3.16c0 .631.081 1.133.242 1.505v.102h-1.232Zm-1.949-.895c.369 0 .718-.096 1.048-.286.33-.19.569-.438.717-.743v-1.409h-.92c-1.439 0-2.159.421-2.159 1.263 0 .368.123.656.369.864.245.207.56.31.945.31Zm6.056.895h-1.174v-9.75h1.174v9.75Zm6.386 0h-1.174v-9.75h1.174v9.75Zm6.125 0c-.067-.136-.122-.377-.165-.724-.546.567-1.197.85-1.955.85-.677 0-1.233-.19-1.669-.57a1.871 1.871 0 0 1-.648-1.46c0-.716.271-1.27.813-1.664.546-.397 1.312-.596 2.298-.596h1.142v-.54c0-.41-.122-.736-.368-.978-.245-.245-.607-.368-1.085-.368-.419 0-.771.106-1.054.318-.284.211-.425.467-.425.768h-1.181c0-.343.121-.673.362-.99.245-.322.575-.576.99-.762.419-.186.878-.28 1.377-.28.792 0 1.412.2 1.86.597.449.394.682.938.699 1.632v3.16c0 .631.08 1.133.241 1.505v.102h-1.232Zm-1.948-.895c.368 0 .717-.096 1.047-.286.33-.19.569-.438.717-.743v-1.409h-.92c-1.439 0-2.158.421-2.158 1.263 0 .368.122.656.368.864.245.207.56.31.946.31Zm10.594-2.463c0 1.05-.241 1.893-.724 2.532-.482.635-1.13.953-1.942.953-.868 0-1.538-.307-2.012-.92l-.058.793h-1.079v-9.75h1.175v3.637c.474-.588 1.127-.882 1.961-.882.834 0 1.488.315 1.962.945.478.63.717 1.494.717 2.59v.102Zm-1.175-.134c0-.8-.154-1.417-.463-1.853-.309-.436-.753-.654-1.333-.654-.774 0-1.331.36-1.669 1.08v2.97c.359.72.92 1.079 1.682 1.079.563 0 1.001-.218 1.314-.654.313-.436.469-1.092.469-1.968ZM244.507 70.749v-9.242h2.609c.804 0 1.514.177 2.132.533a3.59 3.59 0 0 1 1.429 1.517c.338.656.509 1.409.514 2.26v.59c0 .872-.17 1.635-.508 2.291a3.525 3.525 0 0 1-1.441 1.511c-.622.351-1.348.531-2.177.54h-2.558Zm1.218-8.24v7.243h1.283c.939 0 1.669-.292 2.19-.876.524-.584.787-1.415.787-2.495v-.54c0-1.049-.248-1.863-.743-2.443-.491-.584-1.189-.88-2.095-.889h-1.422Zm8.405 8.24h-1.175V63.88h1.175v6.868Zm-1.27-8.69c0-.19.057-.351.172-.483.118-.13.292-.197.52-.197.229 0 .402.066.521.197a.695.695 0 0 1 .177.483c0 .19-.059.349-.177.476-.119.127-.292.19-.521.19-.228 0-.402-.063-.52-.19a.682.682 0 0 1-.172-.476Zm7.154 6.868c0-.318-.121-.563-.362-.736-.237-.178-.654-.33-1.25-.457-.593-.127-1.065-.28-1.416-.457-.347-.178-.605-.39-.774-.635a1.533 1.533 0 0 1-.248-.876c0-.563.237-1.04.711-1.428.478-.39 1.088-.584 1.828-.584.779 0 1.409.2 1.892.603.486.402.73.916.73 1.542h-1.181c0-.322-.137-.599-.412-.832-.271-.232-.614-.349-1.029-.349-.427 0-.761.093-1.003.28a.88.88 0 0 0-.362.73c0 .283.113.497.337.64.224.145.628.282 1.212.413.589.132 1.065.288 1.429.47.363.182.632.402.806.66.177.254.266.565.266.933 0 .614-.245 1.107-.736 1.48-.491.368-1.128.552-1.911.552-.55 0-1.036-.098-1.46-.292a2.404 2.404 0 0 1-.996-.813 1.993 1.993 0 0 1-.356-1.136h1.175c.021.393.177.707.469.94.297.228.686.342 1.168.342.445 0 .8-.089 1.067-.267.271-.181.406-.423.406-.723Zm4.297-6.71v1.663h1.283v.908h-1.283v4.26c0 .275.057.482.172.622.114.135.309.203.584.203.135 0 .321-.026.558-.077v.953a3.404 3.404 0 0 1-.901.127c-.525 0-.92-.16-1.187-.477-.267-.317-.4-.767-.4-1.352v-4.259h-1.25v-.907h1.25v-1.664h1.174Zm5.98 2.717a3.523 3.523 0 0 0-.578-.044c-.77 0-1.293.328-1.568.984v4.875h-1.174V63.88h1.143l.019.793c.385-.614.931-.92 1.637-.92.229 0 .402.03.521.088v1.092Zm2.361 5.815h-1.174V63.88h1.174v6.868Zm-1.269-8.69a.71.71 0 0 1 .171-.483c.118-.13.292-.197.521-.197.228 0 .402.066.52.197a.691.691 0 0 1 .178.483c0 .19-.059.349-.178.476-.118.127-.292.19-.52.19-.229 0-.403-.063-.521-.19a.686.686 0 0 1-.171-.476Zm8.969 5.332c0 1.05-.241 1.893-.724 2.532-.482.635-1.13.953-1.942.953-.868 0-1.538-.307-2.012-.92l-.057.793h-1.08v-9.75h1.175v3.637c.474-.588 1.127-.882 1.961-.882.834 0 1.488.315 1.962.945.478.63.717 1.494.717 2.59v.102Zm-1.174-.134c0-.8-.155-1.417-.464-1.853-.309-.436-.753-.654-1.333-.654-.774 0-1.331.36-1.669 1.08v2.97c.359.72.92 1.079 1.682 1.079.563 0 1.001-.218 1.314-.654.313-.436.47-1.092.47-1.968Zm6.899 2.813c-.457.537-1.127.806-2.012.806-.732 0-1.29-.212-1.676-.635-.38-.428-.573-1.058-.577-1.892V63.88h1.174v4.437c0 1.042.423 1.562 1.27 1.562.897 0 1.493-.334 1.79-1.003V63.88h1.174v6.869h-1.117l-.026-.68Zm4.526-7.853v1.663h1.283v.908h-1.283v4.26c0 .275.057.482.172.622.114.135.309.203.584.203.135 0 .321-.026.558-.077v.953a3.404 3.404 0 0 1-.901.127c-.525 0-.92-.16-1.187-.477-.267-.317-.4-.767-.4-1.352v-4.259h-1.25v-.907h1.25v-1.664h1.174Zm2.222 5.034c0-.673.131-1.278.394-1.815a2.98 2.98 0 0 1 1.104-1.245 3.024 3.024 0 0 1 1.619-.438c.935 0 1.69.324 2.266.972.58.647.869 1.508.869 2.583v.083c0 .668-.129 1.27-.387 1.802-.254.53-.62.942-1.098 1.238-.474.297-1.02.445-1.638.445-.931 0-1.686-.324-2.266-.972-.575-.647-.863-1.504-.863-2.57v-.083Zm1.181.14c0 .761.175 1.373.527 1.834.355.462.829.692 1.421.692.597 0 1.071-.233 1.422-.698.352-.47.527-1.126.527-1.968 0-.753-.18-1.363-.539-1.828a1.695 1.695 0 0 0-1.422-.705c-.58 0-1.048.231-1.403.692-.356.462-.533 1.122-.533 1.98Zm9.864-2.457a3.523 3.523 0 0 0-.578-.044c-.77 0-1.293.328-1.568.984v4.875h-1.174V63.88h1.143l.019.793c.385-.614.931-.92 1.637-.92.229 0 .402.03.521.088v1.092ZM391.651 67.01h-2.171v3.739h-1.225v-9.242h3.06c1.041 0 1.841.236 2.399.71.563.474.844 1.164.844 2.07 0 .575-.156 1.077-.469 1.504-.309.428-.741.747-1.295.959l2.171 3.922v.077h-1.308l-2.006-3.74Zm-2.171-.997h1.873c.605 0 1.085-.156 1.441-.47.359-.313.539-.732.539-1.256 0-.572-.171-1.01-.514-1.314-.338-.305-.829-.46-1.473-.464h-1.866v3.504Zm9.458 4.863c-.931 0-1.688-.305-2.272-.915-.584-.613-.876-1.432-.876-2.456v-.216c0-.681.129-1.288.387-1.822a3.043 3.043 0 0 1 1.092-1.256c.47-.305.977-.457 1.523-.457.893 0 1.587.294 2.082.882.495.588.743 1.43.743 2.526v.489h-4.653c.017.677.214 1.225.59 1.644.381.415.864.622 1.448.622.414 0 .766-.085 1.053-.254.288-.17.54-.393.756-.673l.717.559c-.575.884-1.439 1.327-2.59 1.327Zm-.146-6.158a1.56 1.56 0 0 0-1.193.52c-.322.344-.521.826-.597 1.448h3.441v-.089c-.034-.596-.195-1.058-.483-1.383-.288-.33-.677-.496-1.168-.496Zm8.189 4.209c0-.318-.121-.563-.362-.736-.237-.178-.654-.33-1.251-.457-.592-.127-1.064-.28-1.415-.457-.347-.178-.605-.39-.775-.635a1.532 1.532 0 0 1-.247-.876c0-.563.237-1.04.711-1.428.478-.39 1.087-.584 1.828-.584.779 0 1.409.2 1.892.603.486.402.73.916.73 1.542h-1.181c0-.322-.138-.599-.413-.832-.271-.232-.613-.349-1.028-.349-.427 0-.762.093-1.003.28a.88.88 0 0 0-.362.73c0 .283.112.497.337.64.224.145.628.282 1.212.413.588.132 1.064.288 1.428.47.364.182.633.402.806.66.178.254.267.565.267.933 0 .614-.245 1.107-.736 1.48-.491.368-1.128.552-1.911.552-.55 0-1.037-.098-1.46-.292a2.414 2.414 0 0 1-.997-.813 2 2 0 0 1-.355-1.136h1.174c.022.393.178.707.47.94.296.228.686.342 1.168.342.444 0 .8-.089 1.066-.267.271-.181.407-.423.407-.723Zm5.554 1.949c-.931 0-1.689-.305-2.273-.915-.584-.613-.876-1.432-.876-2.456v-.216c0-.681.13-1.288.388-1.822a3.048 3.048 0 0 1 1.091-1.256c.47-.305.978-.457 1.524-.457.893 0 1.587.294 2.082.882.495.588.743 1.43.743 2.526v.489h-4.653c.017.677.213 1.225.59 1.644.381.415.863.622 1.447.622.415 0 .766-.085 1.054-.254.288-.17.54-.393.755-.673l.718.559c-.576.884-1.439 1.327-2.59 1.327Zm-.146-6.158a1.56 1.56 0 0 0-1.193.52c-.322.344-.521.826-.597 1.448h3.44v-.089c-.034-.596-.194-1.058-.482-1.383-.288-.33-.677-.496-1.168-.496Zm5.465 6.03h-1.174v-9.75h1.174v9.75Zm3.161 0h-1.174v-9.75h1.174v9.75Zm4.736.128c-.931 0-1.689-.305-2.273-.915-.584-.613-.876-1.432-.876-2.456v-.216c0-.681.129-1.288.387-1.822a3.057 3.057 0 0 1 1.092-1.256c.47-.305.978-.457 1.524-.457.893 0 1.587.294 2.082.882.495.588.742 1.43.742 2.526v.489h-4.652c.017.677.213 1.225.59 1.644.381.415.863.622 1.447.622.415 0 .766-.085 1.054-.254.288-.17.539-.393.755-.673l.718.559c-.576.884-1.439 1.327-2.59 1.327Zm-.146-6.158c-.474 0-.872.174-1.194.52-.321.344-.52.826-.596 1.448h3.44v-.089c-.034-.596-.195-1.058-.482-1.383-.288-.33-.677-.496-1.168-.496Zm7.509.216a3.523 3.523 0 0 0-.578-.044c-.77 0-1.292.328-1.568.984v4.875h-1.174V63.88h1.143l.019.793c.385-.614.931-.92 1.637-.92.229 0 .403.03.521.088v1.092ZM503.611 67.816c-.115.978-.476 1.733-1.086 2.266-.605.53-1.411.794-2.418.794-1.092 0-1.968-.392-2.628-1.175-.656-.783-.984-1.83-.984-3.142v-.888c0-.86.152-1.615.457-2.267.309-.651.745-1.15 1.308-1.498.562-.35 1.214-.526 1.955-.526.981 0 1.768.275 2.361.825.592.546.937 1.303 1.035 2.272h-1.226c-.105-.736-.336-1.27-.691-1.6-.352-.33-.845-.495-1.479-.495-.779 0-1.391.288-1.835.864-.44.575-.66 1.394-.66 2.456v.895c0 1.003.209 1.8.628 2.393.419.593 1.005.889 1.759.889.677 0 1.195-.152 1.555-.457.364-.309.605-.844.723-1.606h1.226Zm1.174-.565c0-.673.131-1.278.393-1.815a2.99 2.99 0 0 1 1.105-1.245 3.022 3.022 0 0 1 1.619-.438c.935 0 1.69.324 2.266.972.579.647.869 1.508.869 2.583v.083c0 .668-.129 1.27-.387 1.802-.254.53-.62.942-1.098 1.238-.474.297-1.02.445-1.638.445-.931 0-1.686-.324-2.266-.972-.575-.647-.863-1.504-.863-2.57v-.083Zm1.181.14c0 .761.175 1.373.526 1.834.356.462.83.692 1.422.692.597 0 1.071-.233 1.422-.698.351-.47.527-1.126.527-1.968 0-.753-.18-1.363-.54-1.828a1.692 1.692 0 0 0-1.421-.705c-.58 0-1.048.231-1.403.692-.356.462-.533 1.122-.533 1.98Zm7.648-3.51.032.761c.504-.592 1.183-.888 2.038-.888.96 0 1.614.368 1.961 1.104.229-.33.525-.597.889-.8.368-.203.802-.305 1.301-.305 1.507 0 2.273.798 2.298 2.394v4.602h-1.174v-4.533c0-.49-.112-.856-.337-1.098-.224-.245-.601-.368-1.13-.368-.435 0-.797.131-1.085.394-.288.258-.455.607-.501 1.047v4.558h-1.181v-4.5c0-1-.489-1.499-1.466-1.499-.771 0-1.298.328-1.581.984v5.015h-1.174V63.88h1.11Zm16.098 3.51c0 1.045-.239 1.887-.717 2.526-.478.64-1.126.959-1.943.959-.833 0-1.489-.265-1.967-.794v3.307h-1.175v-9.508h1.073l.057.761c.478-.592 1.143-.888 1.993-.888.826 0 1.477.31 1.956.933.482.622.723 1.487.723 2.596v.108Zm-1.174-.134c0-.774-.165-1.386-.495-1.834-.33-.449-.783-.673-1.359-.673-.711 0-1.244.315-1.599.946v3.282c.351.626.888.94 1.612.94.563 0 1.009-.223 1.339-.667.335-.449.502-1.113.502-1.994Zm6.912 3.492c-.067-.136-.122-.377-.165-.724-.546.567-1.197.85-1.955.85-.677 0-1.233-.19-1.669-.57a1.871 1.871 0 0 1-.648-1.46c0-.716.271-1.27.813-1.664.546-.397 1.312-.596 2.298-.596h1.142v-.54c0-.41-.122-.736-.368-.978-.245-.245-.607-.368-1.085-.368-.419 0-.77.106-1.054.318-.284.211-.425.467-.425.768h-1.181c0-.343.121-.673.362-.99.245-.322.575-.576.99-.762.419-.186.878-.28 1.378-.28.791 0 1.411.2 1.859.597.449.394.682.938.699 1.632v3.16c0 .631.08 1.133.241 1.505v.102h-1.232Zm-1.948-.895c.368 0 .717-.096 1.047-.286.33-.19.569-.438.717-.743v-1.409h-.92c-1.439 0-2.158.421-2.158 1.263 0 .368.122.656.368.864.245.207.561.31.946.31Zm8.099-4.92a3.51 3.51 0 0 0-.577-.044c-.771 0-1.293.328-1.568.984v4.875h-1.175V63.88h1.143l.019.793c.385-.614.931-.92 1.638-.92.228 0 .402.03.52.088v1.092Zm5.072 5.815c-.068-.136-.123-.377-.165-.724-.546.567-1.198.85-1.955.85-.677 0-1.234-.19-1.669-.57a1.871 1.871 0 0 1-.648-1.46c0-.716.271-1.27.813-1.664.545-.397 1.311-.596 2.297-.596h1.143v-.54c0-.41-.123-.736-.368-.978-.246-.245-.607-.368-1.086-.368-.419 0-.77.106-1.053.318-.284.211-.426.467-.426.768h-1.18c0-.343.12-.673.362-.99.245-.322.575-.576.99-.762.419-.186.878-.28 1.377-.28.792 0 1.412.2 1.86.597.449.394.681.938.698 1.632v3.16c0 .631.081 1.133.242 1.505v.102h-1.232Zm-1.949-.895c.369 0 .718-.096 1.048-.286.33-.19.569-.438.717-.743v-1.409h-.92c-1.439 0-2.159.421-2.159 1.263 0 .368.123.656.369.864.245.207.56.31.945.31Zm10.595-2.463c0 1.05-.242 1.893-.724 2.532-.482.635-1.13.953-1.942.953-.868 0-1.539-.307-2.013-.92l-.057.793h-1.079v-9.75h1.174v3.637c.474-.588 1.128-.882 1.962-.882.834 0 1.487.315 1.961.945.478.63.718 1.494.718 2.59v.102Zm-1.175-.134c0-.8-.154-1.417-.463-1.853-.309-.436-.753-.654-1.333-.654-.775 0-1.331.36-1.67 1.08v2.97c.36.72.921 1.079 1.683 1.079.562 0 1-.218 1.314-.654.313-.436.469-1.092.469-1.968Zm3.936 3.492h-1.174v-9.75h1.174v9.75Zm4.735.127c-.931 0-1.688-.305-2.272-.915-.584-.613-.876-1.432-.876-2.456v-.216c0-.681.129-1.288.387-1.822a3.043 3.043 0 0 1 1.092-1.256 2.743 2.743 0 0 1 1.523-.457c.893 0 1.587.294 2.082.882.495.588.743 1.43.743 2.526v.489h-4.653c.017.677.214 1.225.59 1.644.381.415.864.622 1.448.622.414 0 .766-.085 1.053-.254.288-.17.54-.393.756-.673l.717.559c-.576.884-1.439 1.327-2.59 1.327Zm-.146-6.158a1.56 1.56 0 0 0-1.193.52c-.322.344-.521.826-.597 1.448h3.441v-.089c-.034-.596-.195-1.058-.483-1.383-.288-.33-.677-.496-1.168-.496Zm13.216 2.673c0 1.045-.239 1.887-.717 2.526-.478.64-1.126.959-1.943.959-.833 0-1.489-.265-1.967-.794v3.307h-1.175v-9.508h1.073l.057.761c.478-.592 1.143-.888 1.993-.888.825 0 1.477.31 1.955.933.483.622.724 1.487.724 2.596v.108Zm-1.174-.134c0-.774-.165-1.386-.495-1.834-.331-.449-.783-.673-1.359-.673-.711 0-1.244.315-1.599.946v3.282c.351.626.888.94 1.612.94.563 0 1.009-.223 1.339-.667.335-.449.502-1.113.502-1.994Zm5.992-2.323a3.523 3.523 0 0 0-.578-.044c-.77 0-1.293.328-1.568.984v4.875h-1.174V63.88h1.143l.019.793c.385-.614.931-.92 1.637-.92.229 0 .402.03.521.088v1.092Zm2.361 5.815h-1.174V63.88h1.174v6.868Zm-1.269-8.69a.71.71 0 0 1 .171-.483c.119-.13.292-.197.521-.197.228 0 .402.066.52.197a.691.691 0 0 1 .178.483c0 .19-.059.349-.178.476-.118.127-.292.19-.52.19-.229 0-.402-.063-.521-.19a.686.686 0 0 1-.171-.476Zm5.909 7.858a1.69 1.69 0 0 0 1.098-.38c.314-.255.487-.572.521-.953h1.111a2.133 2.133 0 0 1-.406 1.124c-.25.355-.584.639-1.003.85a2.868 2.868 0 0 1-1.321.318c-.935 0-1.68-.311-2.234-.934-.55-.626-.825-1.48-.825-2.564v-.197c0-.668.122-1.263.368-1.783.245-.52.597-.925 1.054-1.213.461-.288 1.005-.431 1.631-.431.77 0 1.409.23 1.917.691.512.462.785 1.06.819 1.797h-1.111c-.034-.445-.203-.808-.508-1.092-.3-.288-.673-.432-1.117-.432-.597 0-1.06.216-1.39.648-.326.427-.489 1.047-.489 1.86v.222c0 .791.163 1.4.489 1.828.326.427.791.641 1.396.641Zm6.9.959c-.931 0-1.688-.305-2.272-.915-.584-.613-.876-1.432-.876-2.456v-.216c0-.681.129-1.288.387-1.822a3.043 3.043 0 0 1 1.092-1.256c.47-.305.977-.457 1.523-.457.893 0 1.587.294 2.082.882.495.588.743 1.43.743 2.526v.489h-4.653c.017.677.214 1.225.59 1.644.381.415.864.622 1.448.622.414 0 .766-.085 1.053-.254.288-.17.54-.393.756-.673l.717.559c-.575.884-1.439 1.327-2.59 1.327Zm-.146-6.158a1.56 1.56 0 0 0-1.193.52c-.322.344-.521.826-.597 1.448h3.441v-.089c-.034-.596-.195-1.058-.483-1.383-.288-.33-.677-.496-1.168-.496Zm-91.781 20.28c0-.957.127-1.876.381-2.756.258-.88.641-1.68 1.149-2.4.508-.718 1.035-1.226 1.581-1.522l.241.774c-.618.474-1.126 1.198-1.523 2.17-.394.974-.61 2.064-.648 3.27l-.006.54c0 1.633.298 3.05.895 4.252.36.72.787 1.283 1.282 1.689l-.241.717c-.563-.313-1.1-.838-1.612-1.574-.999-1.439-1.499-3.16-1.499-5.16Zm7.395-.369c-1.045-.3-1.806-.669-2.285-1.105a2.13 2.13 0 0 1-.711-1.624c0-.728.29-1.33.87-1.803.584-.478 1.342-.718 2.272-.718.635 0 1.2.123 1.695.369.5.245.885.584 1.156 1.015.275.432.412.904.412 1.416h-1.225c0-.559-.178-.997-.533-1.314-.356-.322-.857-.483-1.505-.483-.6 0-1.07.134-1.409.4-.334.263-.501.629-.501 1.099 0 .376.159.696.476.958.322.258.865.495 1.631.71.77.217 1.371.456 1.803.718.436.258.757.56.965.908.211.347.317.755.317 1.225 0 .749-.292 1.35-.876 1.803-.584.448-1.364.673-2.342.673-.635 0-1.227-.121-1.777-.362-.551-.246-.976-.58-1.276-1.003a2.454 2.454 0 0 1-.445-1.441h1.226c0 .559.205 1 .615 1.327.415.321.967.482 1.657.482.643 0 1.136-.131 1.479-.394.343-.262.514-.62.514-1.072 0-.453-.159-.802-.476-1.048-.317-.25-.893-.495-1.727-.736Zm9.052 4.12c-.067-.136-.122-.377-.165-.724-.546.567-1.197.85-1.955.85-.677 0-1.233-.19-1.669-.57a1.871 1.871 0 0 1-.648-1.46c0-.716.271-1.27.813-1.664.546-.397 1.312-.596 2.298-.596h1.142v-.54c0-.41-.123-.736-.368-.978-.245-.245-.607-.368-1.085-.368-.419 0-.771.106-1.054.318-.284.211-.425.467-.425.768h-1.181c0-.343.12-.673.362-.99.245-.322.575-.576.99-.762.419-.186.878-.28 1.377-.28.792 0 1.412.2 1.86.597.449.394.682.938.698 1.632v3.16c0 .631.081 1.133.242 1.505v.102h-1.232Zm-1.948-.895c.368 0 .717-.096 1.047-.286.33-.19.569-.438.717-.743v-1.409h-.92c-1.439 0-2.158.421-2.158 1.263 0 .368.122.656.368.864.245.207.56.31.946.31Zm5.884-5.974.032.762c.503-.592 1.182-.888 2.037-.888.961 0 1.615.368 1.962 1.104.228-.33.524-.597.888-.8.368-.203.802-.305 1.302-.305 1.506 0 2.272.798 2.297 2.394v4.602h-1.174v-4.533c0-.49-.112-.856-.336-1.098-.225-.245-.601-.368-1.13-.368-.436 0-.798.131-1.086.394-.287.258-.455.607-.501 1.047v4.558h-1.181v-4.5c0-1-.489-1.499-1.466-1.499-.77 0-1.297.328-1.581.984v5.015h-1.174V81.88h1.111Zm13.146 6.996c-.931 0-1.689-.305-2.273-.915-.584-.613-.876-1.432-.876-2.456v-.216c0-.681.129-1.288.388-1.822a3.048 3.048 0 0 1 1.091-1.256c.47-.305.978-.457 1.524-.457.893 0 1.587.294 2.082.882.495.588.743 1.43.743 2.526v.489h-4.653c.017.677.213 1.225.59 1.644.381.415.863.622 1.447.622.415 0 .766-.085 1.054-.254.288-.17.54-.393.755-.673l.718.559c-.576.884-1.439 1.327-2.59 1.327Zm-.146-6.158c-.474 0-.872.174-1.194.52-.321.344-.52.826-.596 1.448h3.44v-.089c-.034-.596-.194-1.058-.482-1.383-.288-.33-.677-.496-1.168-.496Zm13.216 2.673c0 1.045-.239 1.887-.718 2.526-.478.64-1.125.959-1.942.959-.834 0-1.49-.265-1.968-.794v3.307h-1.174v-9.508h1.073l.057.761c.478-.592 1.142-.888 1.993-.888.825 0 1.477.31 1.955.933.482.622.724 1.487.724 2.596v.108Zm-1.175-.134c0-.774-.165-1.386-.495-1.834-.33-.449-.783-.673-1.358-.673-.711 0-1.244.315-1.6.946v3.282c.351.626.889.94 1.612.94.563 0 1.01-.223 1.34-.667.334-.449.501-1.113.501-1.994Zm5.992-2.323a3.51 3.51 0 0 0-.577-.044c-.77 0-1.293.328-1.568.984v4.875h-1.174V81.88h1.142l.019.793c.385-.614.931-.92 1.638-.92.228 0 .402.03.52.088v1.092Zm.648 2.317c0-.673.131-1.278.394-1.815a2.98 2.98 0 0 1 1.104-1.245 3.024 3.024 0 0 1 1.619-.438c.935 0 1.69.324 2.266.972.58.647.869 1.508.869 2.583v.083c0 .668-.129 1.27-.387 1.802-.254.53-.62.942-1.098 1.238-.474.297-1.02.445-1.638.445-.931 0-1.686-.324-2.266-.972-.575-.647-.863-1.504-.863-2.57v-.083Zm1.181.14c0 .761.175 1.373.526 1.834.356.462.83.692 1.422.692.597 0 1.071-.233 1.422-.698.351-.47.527-1.126.527-1.968 0-.753-.18-1.363-.539-1.828a1.695 1.695 0 0 0-1.422-.705c-.58 0-1.048.231-1.403.692-.356.462-.533 1.122-.533 1.98Zm6.258-.134c0-1.053.25-1.9.749-2.539.5-.643 1.154-.965 1.962-.965.804 0 1.441.276 1.91.826v-3.58h1.175v9.75h-1.079l-.057-.737c-.47.576-1.124.864-1.962.864-.795 0-1.445-.326-1.949-.978-.499-.652-.749-1.502-.749-2.552v-.089Zm1.175.134c0 .778.161 1.388.482 1.828.322.44.766.66 1.333.66.745 0 1.289-.334 1.631-1.003v-3.155c-.351-.647-.89-.97-1.618-.97-.576 0-1.024.221-1.346.666-.321.444-.482 1.102-.482 1.974Zm10.689 2.678c-.457.538-1.128.807-2.012.807-.732 0-1.291-.212-1.676-.635-.381-.428-.573-1.058-.577-1.892V81.88h1.174v4.438c0 1.04.423 1.561 1.269 1.561.898 0 1.494-.334 1.79-1.003V81.88h1.175v6.869h-1.117l-.026-.68Zm5.688-.152a1.69 1.69 0 0 0 1.098-.38 1.34 1.34 0 0 0 .52-.953h1.111a2.125 2.125 0 0 1-.406 1.124c-.25.355-.584.639-1.003.85a2.866 2.866 0 0 1-1.32.318c-.936 0-1.68-.311-2.235-.934-.55-.626-.825-1.48-.825-2.564v-.197c0-.668.123-1.263.368-1.783.246-.52.597-.925 1.054-1.213.461-.288 1.005-.431 1.631-.431.771 0 1.41.23 1.917.691.512.462.785 1.06.819 1.797h-1.111c-.034-.445-.203-.808-.507-1.092-.301-.288-.673-.432-1.118-.432-.596 0-1.06.216-1.39.648-.326.427-.489 1.047-.489 1.86v.222c0 .791.163 1.4.489 1.828.326.427.792.641 1.397.641Zm5.643-7.7v1.663h1.282v.908h-1.282v4.26c0 .275.057.482.171.622.114.135.309.203.584.203.136 0 .322-.026.559-.077v.953a3.41 3.41 0 0 1-.902.127c-.524 0-.92-.16-1.187-.477-.266-.317-.4-.767-.4-1.352v-4.259h-1.25v-.907h1.25v-1.664h1.175Zm5.37 4.844c0 .943-.125 1.849-.375 2.716a7.92 7.92 0 0 1-1.136 2.394c-.508.732-1.041 1.252-1.599 1.561l-.248-.717c.652-.5 1.174-1.274 1.568-2.323.398-1.054.601-2.222.609-3.504v-.204c0-.888-.093-1.713-.279-2.475a8.281 8.281 0 0 0-.781-2.057c-.33-.605-.702-1.077-1.117-1.415l.248-.718c.558.31 1.089.826 1.593 1.55a7.941 7.941 0 0 1 1.136 2.392c.254.872.381 1.805.381 2.8Z"/><path fill="#3A4850" fill-rule="evenodd" d="M536.48 124.041a.23.23 0 0 1 .221-.228 1.033 1.033 0 1 0 0-2.064 2.292 2.292 0 0 0-2.286 2.292v5.597c0 .044.003.088.008.131l-.002.138c0 .689.155 1.342.432 1.926a8.653 8.653 0 0 1-.252-.476l-9.463 3.156a3.058 3.058 0 0 1-.159.128v.001c-.128.11-.257.22-.391.324l-5.457 7.095a.732.732 0 0 0-.134.631.75.75 0 0 0 .41.501l5.168 2.435v9.774c0 .288.165.557.429.679l19.048 8.962s.012 0 .018.006c.009 0 .015.003.022.007l.009.005a.674.674 0 0 0 .532 0c.012 0 .03-.006.043-.012.012 0 .018 0 .03-.012l17.923-8.962a.759.759 0 0 0 .416-.673v-9.903l4.63-2.312a.748.748 0 0 0 .281-1.095h-.006l-4.704-6.796h.007a1.849 1.849 0 0 0-.104-.098 10.654 10.654 0 0 1-.71-.648h-.001a7.245 7.245 0 0 1-.274-.281l-.098.104-9.169-3.059a8.875 8.875 0 0 1-.82 1.309l8.129 2.71-15.849 6.936-16.888-6.954 7.905-2.638a4.487 4.487 0 0 0 3.542 1.731 4.497 4.497 0 0 0 4.494-4.501c0-.062.022-.12.056-.165a.763.763 0 0 0 .457.073c.01.028.016.059.016.092a4.493 4.493 0 0 0 4.494 4.501 4.496 4.496 0 0 0 4.495-4.501l-.002-.138c.005-.043.008-.087.008-.131v-5.597a2.292 2.292 0 0 0-2.286-2.292 1.033 1.033 0 1 0 0 2.064.23.23 0 0 1 .221.228v2.085a4.494 4.494 0 0 0-6.366 1.598 2.319 2.319 0 0 0-1.656 0 4.49 4.49 0 0 0-6.367-1.6v-2.083Zm2.436 3.43a2.432 2.432 0 0 1 2.429 2.436 2.431 2.431 0 0 1-2.429 2.436 2.435 2.435 0 0 1-2.43-2.436 2.432 2.432 0 0 1 2.43-2.436Zm9.517 4.872a2.427 2.427 0 0 1-2.429-2.436 2.436 2.436 0 0 1 2.429-2.436 2.436 2.436 0 0 1 2.43 2.436 2.431 2.431 0 0 1-2.43 2.436Zm-22.854 12.104-4.698-2.208 4.685-6.093 17.672 7.28-4.734 7.107-12.84-6.043s-.055-.031-.085-.037v-.006Zm18.032 1.101v17.632l-17.543-8.255v-8.594l12.374 5.823a.732.732 0 0 0 .942-.263l4.227-6.343Zm17.929 9.39-16.43 8.215v-17.911l4.826 6.142a.761.761 0 0 0 .587.287.734.734 0 0 0 .337-.079l10.68-5.34v8.686Zm-10.803-4.961-5.187-6.6 16.473-7.206 4.196 6.068-15.488 7.744.006-.006Z" clip-rule="evenodd"/><path stroke="#3A4850" stroke-miterlimit="10" stroke-width="1.153" d="M178.152 147.812h316.765"/><path fill="#3A4850" d="M494.673 147.811c-.636-.636-.942-1.902-.966-2.777.875 1.175 2.012 2.203 3.395 2.777-1.376.551-2.465 1.64-3.395 2.778.073-.942.306-2.08.966-2.778Z"/><path fill="#3A4850" fill-rule="evenodd" d="m150.837 125.794-6.171 2.231-6.272 2.286-.098.037v6.584l13.368 4.855c.263.098.477.287.593.544h.006c.123.257.135.545.037.808a1.062 1.062 0 0 1-1.352.636l-3.212-1.167v17.89h15.59v-30.15l-12.466-4.545-.023-.009Zm14.6 34.704v-29.416l1.803.654c.263.098.551.086.807-.036.257-.116.447-.331.545-.594.098-.263.086-.55-.037-.807a1.052 1.052 0 0 0-.593-.544l-17.109-6.215-.021.007-.021-.007-5.554 2.023-11.593 4.192a1.063 1.063 0 0 0-.599.544 1.024 1.024 0 0 0-.037.807 1.064 1.064 0 0 0 1.352.637l1.806-.653v5.075l-8.91-3.236-.034.013-.031-.011.003-.002h-.006l.003.002-7.546 2.749-16.894 6.107a1.037 1.037 0 0 0-.593.544 1.037 1.037 0 0 0-.037.808c.196.544.802.831 1.352.636l3.193-1.154v17.877h-3.441a1.052 1.052 0 0 0 0 2.104h3.441v.007h41.05v-.007H168.415a1.052 1.052 0 0 0 0-2.104h-2.978Zm-45.744 0h-10.897v-18.607l.098-.037 10.193-3.714 8.154-2.947.016.006 18.363 6.692v18.607h-11.332v-13.537h-14.595v13.537Zm12.491 0h-10.38v-1.743h10.38v1.743Zm0-3.315h-10.38v-1.64h10.38v1.64Zm-10.38-4.857v1.639h10.38v-1.639h-10.38Zm10.38-1.578h-10.38v-1.676h10.38v1.676Zm10.76 3.89h-2.11v2.588h2.11v-2.588Zm-6.122 0h2.111v2.588h-2.111v-2.588Zm23.599 0h-2.11v2.588h2.11v-2.588Zm-6.122 0h2.11v2.588h-2.11v-2.588Zm-37.077 0h-2.111v2.588h2.111v-2.588Zm-6.122 0h2.11v2.588h-2.11v-2.588Z" clip-rule="evenodd"/><path fill="#3A4850" d="m95.164 174.488 3.022 7.541 3.021-7.541h1.581v9.242h-1.219v-3.599l.114-3.885-3.034 7.484h-.933l-3.028-7.465.12 3.866v3.599H93.59v-9.242h1.574Zm13.832 9.242c-.068-.135-.123-.377-.165-.724-.546.567-1.198.851-1.955.851-.677 0-1.234-.19-1.67-.571a1.874 1.874 0 0 1-.647-1.46c0-.715.271-1.27.812-1.663.546-.398 1.312-.597 2.298-.597h1.143v-.54c0-.41-.123-.736-.368-.977-.246-.246-.608-.368-1.086-.368-.419 0-.77.106-1.054.317-.283.212-.425.468-.425.768h-1.181c0-.343.121-.673.362-.99.246-.322.576-.576.991-.762a3.352 3.352 0 0 1 1.377-.279c.791 0 1.411.199 1.86.597.448.393.681.937.698 1.631v3.161c0 .631.08 1.132.241 1.504v.102h-1.231Zm-1.949-.895c.368 0 .717-.095 1.047-.286.331-.19.57-.438.718-.742v-1.409h-.921c-1.438 0-2.158.421-2.158 1.263 0 .368.123.656.368.863.246.207.561.311.946.311Zm5.891-5.973.038.863c.525-.66 1.21-.99 2.056-.99 1.452 0 2.184.819 2.197 2.456v4.539h-1.175v-4.545c-.004-.495-.118-.861-.342-1.098-.22-.237-.565-.355-1.035-.355-.381 0-.715.101-1.003.304a2.07 2.07 0 0 0-.673.8v4.894h-1.174v-6.868h1.111Zm10.302 6.189c-.457.537-1.128.806-2.012.806-.732 0-1.291-.212-1.676-.635-.381-.427-.573-1.058-.578-1.891v-4.469h1.175v4.437c0 1.041.423 1.561 1.269 1.561.897 0 1.494-.334 1.79-1.003v-4.995h1.175v6.868h-1.118l-.025-.679Zm3.51.679v-5.96h-1.085v-.908h1.085v-.705c0-.736.197-1.305.591-1.707.393-.402.95-.603 1.669-.603.271 0 .54.036.806.108l-.063.952a3.386 3.386 0 0 0-.635-.057c-.381 0-.675.112-.882.336-.208.22-.311.538-.311.952v.724h1.466v.908h-1.466v5.96h-1.175Zm8.182 0c-.067-.135-.122-.377-.165-.724-.546.567-1.197.851-1.955.851-.677 0-1.233-.19-1.669-.571a1.872 1.872 0 0 1-.648-1.46c0-.715.271-1.27.813-1.663.546-.398 1.312-.597 2.298-.597h1.142v-.54c0-.41-.122-.736-.368-.977-.245-.246-.607-.368-1.085-.368-.419 0-.771.106-1.054.317-.284.212-.425.468-.425.768h-1.181c0-.343.121-.673.362-.99.245-.322.575-.576.99-.762a3.356 3.356 0 0 1 1.377-.279c.792 0 1.412.199 1.86.597.449.393.682.937.699 1.631v3.161c0 .631.08 1.132.241 1.504v.102h-1.232Zm-1.948-.895c.368 0 .717-.095 1.047-.286.33-.19.569-.438.717-.742v-1.409h-.92c-1.439 0-2.158.421-2.158 1.263 0 .368.122.656.368.863.245.207.561.311.946.311Zm7.534.063a1.69 1.69 0 0 0 1.098-.38 1.34 1.34 0 0 0 .521-.953h1.111a2.132 2.132 0 0 1-.406 1.124 2.68 2.68 0 0 1-1.003.851 2.875 2.875 0 0 1-1.321.317c-.935 0-1.68-.311-2.234-.933-.55-.626-.825-1.481-.825-2.565v-.196c0-.669.122-1.264.368-1.784a2.8 2.8 0 0 1 1.054-1.212c.461-.288 1.005-.432 1.631-.432.77 0 1.409.231 1.917.692.512.461.785 1.06.819 1.796h-1.111a1.602 1.602 0 0 0-.508-1.092c-.3-.287-.673-.431-1.117-.431-.597 0-1.06.216-1.39.647-.326.428-.489 1.048-.489 1.86v.222c0 .792.163 1.401.489 1.828.326.428.791.641 1.396.641Zm5.643-7.699v1.663h1.283v.908h-1.283v4.259c0 .275.057.482.172.622.114.135.309.203.584.203.135 0 .321-.025.558-.076v.952a3.387 3.387 0 0 1-.901.127c-.525 0-.92-.159-1.187-.476-.267-.317-.4-.768-.4-1.352v-4.259h-1.25v-.908h1.25v-1.663h1.174Zm6.9 7.852c-.457.537-1.128.806-2.012.806-.732 0-1.291-.212-1.676-.635-.381-.427-.573-1.058-.577-1.891v-4.469h1.174v4.437c0 1.041.423 1.561 1.269 1.561.898 0 1.494-.334 1.791-1.003v-4.995h1.174v6.868h-1.117l-.026-.679Zm6.253-5.135a3.486 3.486 0 0 0-.578-.045c-.77 0-1.293.328-1.568.984v4.875h-1.174v-6.868h1.142l.02.793c.385-.613.93-.92 1.637-.92.229 0 .402.03.521.089v1.092Zm3.808 5.941c-.931 0-1.688-.305-2.272-.914-.584-.614-.876-1.433-.876-2.457v-.215c0-.682.129-1.289.387-1.822a3.037 3.037 0 0 1 1.092-1.257c.47-.305.977-.457 1.523-.457.893 0 1.587.294 2.082.882.495.588.743 1.431.743 2.527v.488h-4.653c.017.677.214 1.225.591 1.644.38.415.863.622 1.447.622.414 0 .766-.084 1.053-.253.288-.17.54-.394.756-.673l.717.558c-.575.885-1.439 1.327-2.59 1.327Zm-.146-6.157c-.474 0-.871.173-1.193.52-.322.343-.521.825-.597 1.448h3.441v-.089c-.034-.597-.195-1.058-.483-1.384-.287-.33-.677-.495-1.168-.495Zm7.51.216a3.486 3.486 0 0 0-.578-.045c-.77 0-1.293.328-1.568.984v4.875h-1.174v-6.868h1.142l.019.793c.385-.613.931-.92 1.638-.92.229 0 .402.03.521.089v1.092Zm4.062 3.332c0-.444.123-.853.368-1.225.25-.372.724-.806 1.422-1.301-.41-.5-.685-.902-.825-1.206a2.164 2.164 0 0 1-.21-.908c0-.703.208-1.253.623-1.65.414-.398.977-.597 1.688-.597.635 0 1.16.186 1.574.558.415.369.622.834.622 1.397 0 .372-.095.717-.285 1.035-.187.313-.515.643-.984.99l-.679.501 2.056 2.457c.288-.55.432-1.162.432-1.835h1.06c0 1.08-.26 1.975-.781 2.685l1.32 1.581h-1.409l-.615-.73a3.268 3.268 0 0 1-1.105.641 3.917 3.917 0 0 1-1.282.216c-.902 0-1.625-.239-2.171-.717-.546-.478-.819-1.109-.819-1.892Zm2.99 1.65c.622 0 1.191-.236 1.707-.71l-2.253-2.698-.21.152c-.706.521-1.06 1.056-1.06 1.606 0 .499.161.899.483 1.2.326.3.77.45 1.333.45Zm-1.06-6.328c0 .406.249.914.749 1.523l.749-.527c.288-.203.484-.395.59-.577a1.34 1.34 0 0 0 .159-.673.899.899 0 0 0-.318-.705c-.211-.19-.478-.285-.799-.285-.347 0-.622.118-.826.355-.203.233-.304.529-.304.889Zm-61.763 20.837c0 .906-.152 1.697-.457 2.374-.305.673-.736 1.187-1.295 1.543-.558.355-1.21.533-1.955.533-.728 0-1.373-.178-1.936-.533-.563-.36-1.001-.87-1.314-1.53-.309-.664-.468-1.432-.476-2.304v-.667c0-.888.154-1.673.463-2.355.309-.681.745-1.202 1.308-1.561.567-.364 1.214-.546 1.942-.546.741 0 1.393.18 1.955.539.567.356 1.003.874 1.308 1.556.305.677.457 1.466.457 2.367v.584Zm-1.212-.596c0-1.096-.22-1.936-.66-2.52-.441-.589-1.056-.883-1.848-.883-.77 0-1.377.294-1.821.883-.441.584-.667 1.396-.68 2.437v.679c0 1.062.223 1.898.667 2.508.448.605 1.064.907 1.847.907.787 0 1.397-.285 1.828-.857.432-.575.654-1.398.667-2.469v-.685Zm8.658 1.561c0 1.045-.239 1.888-.717 2.526-.479.639-1.126.959-1.943.959-.833 0-1.489-.264-1.968-.793v3.307h-1.174v-9.509h1.073l.057.762c.478-.593 1.143-.889 1.993-.889.825 0 1.477.311 1.955.933.483.622.724 1.487.724 2.596v.108Zm-1.174-.133c0-.775-.165-1.386-.496-1.835-.33-.448-.782-.672-1.358-.672-.711 0-1.244.315-1.6.945v3.282c.352.626.889.939 1.613.939.563 0 1.009-.222 1.339-.666.334-.449.502-1.113.502-1.993Zm4.265-5.04v1.663h1.282v.908h-1.282v4.259c0 .275.057.482.172.622.114.135.308.203.584.203.135 0 .321-.025.558-.076v.952a3.387 3.387 0 0 1-.901.127c-.525 0-.921-.159-1.187-.476-.267-.317-.4-.768-.4-1.352v-4.259h-1.251v-.908h1.251v-1.663h1.174Zm3.936 8.531h-1.175v-6.868h1.175v6.868Zm-1.27-8.69c0-.19.057-.351.172-.482.118-.132.292-.197.52-.197.229 0 .402.065.521.197a.695.695 0 0 1 .177.482.671.671 0 0 1-.177.476c-.119.127-.292.191-.521.191-.228 0-.402-.064-.52-.191a.681.681 0 0 1-.172-.476Zm5.91 7.858a1.69 1.69 0 0 0 1.098-.38c.313-.254.487-.572.521-.953h1.11a2.124 2.124 0 0 1-.406 1.124 2.68 2.68 0 0 1-1.003.851 2.874 2.874 0 0 1-1.32.317c-.935 0-1.68-.311-2.235-.933-.55-.626-.825-1.481-.825-2.565v-.196c0-.669.123-1.264.368-1.784a2.807 2.807 0 0 1 1.054-1.212c.461-.288 1.005-.432 1.632-.432.77 0 1.409.231 1.917.692.512.461.785 1.06.818 1.796h-1.11a1.606 1.606 0 0 0-.508-1.092 1.556 1.556 0 0 0-1.117-.431c-.597 0-1.061.216-1.391.647-.325.428-.488 1.048-.488 1.86v.222c0 .792.163 1.401.488 1.828.326.428.792.641 1.397.641Zm8.29.832c-.068-.135-.123-.377-.165-.724-.546.567-1.198.851-1.955.851-.677 0-1.234-.19-1.67-.571a1.874 1.874 0 0 1-.647-1.46c0-.715.271-1.27.812-1.663.546-.398 1.312-.597 2.298-.597h1.143v-.54c0-.41-.123-.736-.368-.977-.246-.246-.608-.368-1.086-.368-.419 0-.77.106-1.054.317-.283.212-.425.468-.425.768h-1.18c0-.343.12-.673.361-.99.246-.322.576-.576.991-.762a3.356 3.356 0 0 1 1.377-.279c.791 0 1.411.199 1.86.597.448.393.681.937.698 1.631v3.161c0 .631.081 1.132.241 1.504v.102h-1.231Zm-1.949-.895c.368 0 .717-.095 1.048-.286.33-.19.569-.438.717-.742v-1.409h-.921c-1.438 0-2.158.421-2.158 1.263 0 .368.123.656.368.863.246.207.561.311.946.311Zm6.056.895h-1.174v-9.75h1.174v9.75Zm6.386 0h-1.175v-9.75h1.175v9.75Zm6.125 0c-.068-.135-.123-.377-.165-.724-.546.567-1.198.851-1.955.851-.677 0-1.234-.19-1.669-.571a1.872 1.872 0 0 1-.648-1.46c0-.715.271-1.27.813-1.663.545-.398 1.311-.597 2.297-.597h1.143v-.54c0-.41-.123-.736-.368-.977-.246-.246-.607-.368-1.086-.368-.419 0-.77.106-1.053.317-.284.212-.426.468-.426.768h-1.18c0-.343.12-.673.362-.99.245-.322.575-.576.99-.762a3.356 3.356 0 0 1 1.377-.279c.792 0 1.411.199 1.86.597.449.393.681.937.698 1.631v3.161c0 .631.081 1.132.242 1.504v.102h-1.232Zm-1.949-.895c.369 0 .718-.095 1.048-.286.33-.19.569-.438.717-.742v-1.409h-.92c-1.439 0-2.159.421-2.159 1.263 0 .368.123.656.369.863.245.207.56.311.945.311Zm10.595-2.463c0 1.05-.242 1.894-.724 2.533-.482.635-1.13.952-1.942.952-.868 0-1.539-.307-2.013-.92l-.057.793h-1.079v-9.75h1.174v3.637c.474-.588 1.128-.882 1.962-.882.834 0 1.487.315 1.961.946.478.63.718 1.494.718 2.59v.101Zm-1.175-.133c0-.8-.154-1.418-.463-1.854-.309-.436-.753-.653-1.333-.653-.775 0-1.331.359-1.67 1.079v2.97c.36.72.921 1.079 1.683 1.079.562 0 1-.218 1.314-.653.313-.436.469-1.092.469-1.968ZM504.755 182.518c-.313.448-.751.785-1.314 1.009-.559.22-1.211.33-1.955.33-.754 0-1.422-.176-2.006-.527a3.572 3.572 0 0 1-1.359-1.511c-.317-.651-.48-1.407-.488-2.266v-.806c0-1.392.323-2.471.971-3.237.652-.766 1.566-1.149 2.742-1.149.965 0 1.741.247 2.33.743.588.49.948 1.189 1.079 2.094h-1.219c-.229-1.223-.956-1.834-2.184-1.834-.816 0-1.436.288-1.859.863-.419.571-.631 1.401-.635 2.488v.756c0 1.037.237 1.862.711 2.475.474.61 1.115.914 1.923.914.457 0 .857-.05 1.2-.152.343-.101.626-.273.85-.514v-2.076h-2.139v-.99h3.352v3.39Zm3.129 1.212h-1.174v-9.75h1.174v9.75Zm6.126 0c-.068-.135-.123-.377-.165-.724-.546.567-1.198.851-1.955.851-.678 0-1.234-.19-1.67-.571a1.87 1.87 0 0 1-.647-1.46c0-.715.27-1.27.812-1.663.546-.398 1.312-.597 2.298-.597h1.143v-.54c0-.41-.123-.736-.369-.977-.245-.246-.607-.368-1.085-.368-.419 0-.77.106-1.054.317-.283.212-.425.468-.425.768h-1.181c0-.343.121-.673.362-.99.246-.322.576-.576.99-.762a3.357 3.357 0 0 1 1.378-.279c.791 0 1.411.199 1.86.597.448.393.681.937.698 1.631v3.161c0 .631.08 1.132.241 1.504v.102h-1.231Zm-1.949-.895c.368 0 .717-.095 1.047-.286.33-.19.569-.438.718-.742v-1.409h-.921c-1.439 0-2.158.421-2.158 1.263 0 .368.123.656.368.863.246.207.561.311.946.311Zm8.779-.927c0-.317-.121-.563-.362-.736-.237-.178-.654-.33-1.251-.457-.592-.127-1.064-.279-1.415-.457-.347-.178-.605-.389-.775-.635a1.53 1.53 0 0 1-.247-.876c0-.563.237-1.039.711-1.428.478-.389 1.087-.584 1.828-.584.779 0 1.409.201 1.892.603.486.402.73.916.73 1.542h-1.181c0-.321-.138-.598-.413-.831-.271-.233-.613-.349-1.028-.349-.427 0-.762.093-1.003.279a.88.88 0 0 0-.362.73c0 .284.112.497.337.641.224.144.628.282 1.212.413.588.131 1.064.288 1.428.469.364.182.633.403.806.661.178.254.267.565.267.933 0 .613-.245 1.106-.736 1.479-.491.368-1.128.552-1.911.552-.55 0-1.037-.097-1.46-.292a2.406 2.406 0 0 1-.996-.812 1.996 1.996 0 0 1-.356-1.137h1.174c.022.394.178.707.47.94.296.228.686.342 1.168.342.444 0 .8-.088 1.066-.266.271-.182.407-.423.407-.724Zm6.703 0c0-.317-.121-.563-.362-.736-.237-.178-.654-.33-1.25-.457-.593-.127-1.065-.279-1.416-.457-.347-.178-.605-.389-.774-.635a1.531 1.531 0 0 1-.248-.876c0-.563.237-1.039.711-1.428.478-.389 1.088-.584 1.828-.584.779 0 1.409.201 1.892.603.486.402.73.916.73 1.542h-1.181c0-.321-.138-.598-.413-.831-.27-.233-.613-.349-1.028-.349-.427 0-.762.093-1.003.279a.88.88 0 0 0-.362.73c0 .284.112.497.337.641.224.144.628.282 1.212.413.588.131 1.064.288 1.428.469.364.182.633.403.807.661.177.254.266.565.266.933 0 .613-.245 1.106-.736 1.479-.491.368-1.128.552-1.911.552-.55 0-1.037-.097-1.46-.292a2.406 2.406 0 0 1-.996-.812 1.996 1.996 0 0 1-.356-1.137h1.174c.022.394.178.707.47.94.296.228.686.342 1.168.342.445 0 .8-.088 1.067-.266.27-.182.406-.423.406-.724Zm5.554 1.949c-.931 0-1.688-.305-2.272-.914-.584-.614-.876-1.433-.876-2.457v-.215c0-.682.129-1.289.387-1.822a3.037 3.037 0 0 1 1.092-1.257 2.74 2.74 0 0 1 1.523-.457c.893 0 1.587.294 2.082.882.495.588.743 1.431.743 2.527v.488h-4.653c.017.677.214 1.225.59 1.644.381.415.864.622 1.448.622.414 0 .765-.084 1.053-.253.288-.17.54-.394.756-.673l.717.558c-.576.885-1.439 1.327-2.59 1.327Zm-.146-6.157a1.56 1.56 0 0 0-1.193.52c-.322.343-.521.825-.597 1.448h3.44v-.089c-.033-.597-.194-1.058-.482-1.384-.288-.33-.677-.495-1.168-.495Zm8.189 4.208c0-.317-.121-.563-.362-.736-.237-.178-.654-.33-1.251-.457-.592-.127-1.064-.279-1.415-.457-.347-.178-.605-.389-.775-.635a1.53 1.53 0 0 1-.247-.876c0-.563.237-1.039.711-1.428.478-.389 1.087-.584 1.828-.584.778 0 1.409.201 1.891.603.487.402.73.916.73 1.542h-1.18c0-.321-.138-.598-.413-.831-.271-.233-.614-.349-1.028-.349-.428 0-.762.093-1.003.279a.88.88 0 0 0-.362.73c0 .284.112.497.336.641.225.144.629.282 1.213.413.588.131 1.064.288 1.428.469.364.182.633.403.806.661.178.254.267.565.267.933 0 .613-.246 1.106-.737 1.479-.49.368-1.127.552-1.91.552-.55 0-1.037-.097-1.46-.292a2.416 2.416 0 0 1-.997-.812 1.995 1.995 0 0 1-.355-1.137h1.174c.021.394.178.707.47.94.296.228.685.342 1.168.342.444 0 .8-.088 1.066-.266.271-.182.407-.423.407-.724Zm9.394-7.42v6.284c-.004.872-.279 1.585-.825 2.139-.542.555-1.278.866-2.209.933l-.324.013c-1.011 0-1.817-.273-2.418-.819-.601-.546-.906-1.297-.914-2.253v-6.297h1.206v6.259c0 .668.184 1.189.552 1.561.368.368.893.552 1.574.552.69 0 1.217-.184 1.581-.552.368-.368.552-.886.552-1.555v-6.265h1.225Zm4.647 5.122c-1.046-.3-1.807-.668-2.286-1.104a2.13 2.13 0 0 1-.711-1.625c0-.728.29-1.329.87-1.803.584-.478 1.342-.717 2.273-.717.634 0 1.199.123 1.694.368.5.246.885.584 1.156 1.016.275.431.412.903.412 1.415h-1.225c0-.558-.178-.996-.533-1.314-.356-.321-.857-.482-1.504-.482-.601 0-1.071.133-1.41.4-.334.262-.501.628-.501 1.098 0 .377.159.696.476.958.322.259.865.495 1.631.711.77.216 1.371.455 1.803.718.436.258.758.56.965.907.211.347.317.756.317 1.225 0 .749-.292 1.35-.876 1.803-.584.449-1.364.673-2.342.673a4.378 4.378 0 0 1-1.777-.362c-.55-.245-.976-.58-1.276-1.003a2.453 2.453 0 0 1-.445-1.441h1.226c0 .559.205 1.001.615 1.327.415.322.967.482 1.657.482.643 0 1.136-.131 1.479-.393.343-.263.514-.62.514-1.073 0-.453-.159-.802-.476-1.047-.317-.25-.893-.495-1.726-.737Zm10.099 1.708h-3.872l-.87 2.412h-1.257l3.529-9.242h1.067l3.535 9.242h-1.25l-.882-2.412Zm-3.504-1.003h3.142l-1.574-4.323-1.568 4.323Zm6.722 2.799c0-.203.059-.372.178-.507.122-.136.304-.204.546-.204.241 0 .423.068.545.204a.711.711 0 0 1 .191.507.675.675 0 0 1-.191.489c-.122.131-.304.197-.545.197-.242 0-.424-.066-.546-.197a.7.7 0 0 1-.178-.489Zm6.157-.216a1.69 1.69 0 0 0 1.098-.38c.313-.254.487-.572.521-.953h1.111a2.134 2.134 0 0 1-.407 1.124 2.673 2.673 0 0 1-1.003.851 2.868 2.868 0 0 1-1.32.317c-.935 0-1.68-.311-2.234-.933-.55-.626-.825-1.481-.825-2.565v-.196c0-.669.122-1.264.368-1.784a2.799 2.799 0 0 1 1.053-1.212c.462-.288 1.005-.432 1.632-.432.77 0 1.409.231 1.917.692.512.461.785 1.06.819 1.796h-1.111a1.602 1.602 0 0 0-.508-1.092c-.3-.287-.673-.431-1.117-.431-.597 0-1.06.216-1.39.647-.326.428-.489 1.048-.489 1.86v.222c0 .792.163 1.401.489 1.828.325.428.791.641 1.396.641Zm3.739-2.666c0-.672.131-1.278.393-1.815a2.992 2.992 0 0 1 1.105-1.244 3.022 3.022 0 0 1 1.619-.438c.935 0 1.69.324 2.266.971.579.648.869 1.509.869 2.584v.082c0 .669-.129 1.27-.387 1.803-.254.529-.62.941-1.098 1.238-.474.296-1.02.444-1.638.444-.931 0-1.686-.324-2.266-.971-.575-.648-.863-1.505-.863-2.571v-.083Zm1.181.14c0 .762.175 1.373.526 1.835.356.461.83.691 1.422.691.597 0 1.071-.232 1.422-.698.351-.469.527-1.125.527-1.968 0-.753-.18-1.362-.54-1.828a1.694 1.694 0 0 0-1.421-.704c-.58 0-1.048.23-1.403.692-.356.461-.533 1.121-.533 1.98Zm7.648-3.51.032.762c.504-.593 1.183-.889 2.038-.889.96 0 1.614.368 1.961 1.104.229-.33.525-.596.889-.799.368-.204.802-.305 1.301-.305 1.507 0 2.273.798 2.298 2.393v4.602h-1.174v-4.532c0-.491-.112-.857-.337-1.098-.224-.246-.601-.368-1.13-.368-.435 0-.797.131-1.085.393-.288.258-.455.607-.501 1.047v4.558h-1.181v-4.5c0-.999-.489-1.498-1.466-1.498-.771 0-1.297.327-1.581.983v5.015h-1.174v-6.868h1.11Zm-48.07 21.51c0 1.045-.239 1.888-.718 2.526-.478.639-1.125.959-1.942.959-.834 0-1.49-.264-1.968-.793v3.307h-1.174v-9.509h1.073l.057.762c.478-.593 1.142-.889 1.993-.889.825 0 1.477.311 1.955.933.482.622.724 1.487.724 2.596v.108Zm-1.175-.133c0-.775-.165-1.386-.495-1.835-.33-.448-.783-.672-1.358-.672-.711 0-1.244.315-1.6.945v3.282c.351.626.889.939 1.613.939.562 0 1.009-.222 1.339-.666.334-.449.501-1.113.501-1.993Zm5.993-2.323a3.486 3.486 0 0 0-.578-.045c-.77 0-1.293.328-1.568.984v4.875h-1.174v-6.868h1.142l.019.793c.385-.613.931-.92 1.638-.92.229 0 .402.03.521.089v1.092Zm2.361 5.814h-1.174v-6.868h1.174v6.868Zm-1.27-8.69c0-.19.057-.351.172-.482.118-.132.292-.197.52-.197.229 0 .402.065.521.197a.695.695 0 0 1 .177.482.671.671 0 0 1-.177.476c-.119.127-.292.191-.521.191-.228 0-.402-.064-.52-.191a.681.681 0 0 1-.172-.476Zm5.91 7.858a1.69 1.69 0 0 0 1.098-.38c.313-.254.487-.572.521-.953h1.111a2.134 2.134 0 0 1-.407 1.124 2.673 2.673 0 0 1-1.003.851 2.868 2.868 0 0 1-1.32.317c-.935 0-1.68-.311-2.234-.933-.55-.626-.826-1.481-.826-2.565v-.196c0-.669.123-1.264.369-1.784a2.799 2.799 0 0 1 1.053-1.212c.462-.288 1.005-.432 1.632-.432.77 0 1.409.231 1.917.692.512.461.785 1.06.819 1.796h-1.111a1.602 1.602 0 0 0-.508-1.092 1.556 1.556 0 0 0-1.117-.431c-.597 0-1.06.216-1.39.647-.326.428-.489 1.048-.489 1.86v.222c0 .792.163 1.401.489 1.828.325.428.791.641 1.396.641Zm6.9.959c-.931 0-1.689-.305-2.273-.914-.584-.614-.876-1.433-.876-2.457v-.215c0-.682.13-1.289.388-1.822a3.042 3.042 0 0 1 1.091-1.257c.47-.305.978-.457 1.524-.457.893 0 1.587.294 2.082.882.495.588.743 1.431.743 2.527v.488h-4.653c.017.677.214 1.225.59 1.644.381.415.863.622 1.447.622.415 0 .766-.084 1.054-.253.288-.17.54-.394.755-.673l.718.558c-.576.885-1.439 1.327-2.59 1.327Zm-.146-6.157a1.56 1.56 0 0 0-1.193.52c-.322.343-.521.825-.597 1.448h3.44v-.089c-.034-.597-.194-1.058-.482-1.384-.288-.33-.677-.495-1.168-.495Z"/></svg>